<svg xmlns="http://www.w3.org/2000/svg" xmlns:xlink="http://www.w3.org/1999/xlink" width="500" zoomAndPan="magnify" viewBox="0 0 375 374.999991" height="500" preserveAspectRatio="xMidYMid meet" version="1.0"><defs><g/><clipPath id="95b85f559d"><path d="M 48 46.121094 L 326.621094 46.121094 L 326.621094 325 L 48 325 Z M 48 46.121094 " clip-rule="nonzero"/></clipPath><clipPath id="8aee8a968b"><path d="M 120.558594 118.808594 L 254.441406 118.808594 L 254.441406 252.691406 L 120.558594 252.691406 Z M 120.558594 118.808594 " clip-rule="nonzero"/></clipPath><clipPath id="991428a4fa"><path d="M 187.5 118.808594 C 150.527344 118.808594 120.558594 148.78125 120.558594 185.75 C 120.558594 222.722656 150.527344 252.691406 187.5 252.691406 C 224.472656 252.691406 254.441406 222.722656 254.441406 185.75 C 254.441406 148.78125 224.472656 118.808594 187.5 118.808594 Z M 187.5 118.808594 " clip-rule="nonzero"/></clipPath><clipPath id="8a3d7c0818"><path d="M 163 125.460938 L 201 125.460938 L 201 163 L 163 163 Z M 163 125.460938 " clip-rule="nonzero"/></clipPath><clipPath id="d58091a6f5"><path d="M 165.628906 183.609375 L 240.296875 183.609375 L 240.296875 247.535156 L 165.628906 247.535156 Z M 165.628906 183.609375 " clip-rule="nonzero"/></clipPath><clipPath id="1c13ad4189"><path d="M 134.546875 192 L 166 192 L 166 235 L 134.546875 235 Z M 134.546875 192 " clip-rule="nonzero"/></clipPath></defs><g clip-path="url(#95b85f559d)"><path fill="#1e3d58" d="M 326.765625 185.109375 C 326.765625 187.382812 326.710938 189.65625 326.597656 191.929688 C 326.488281 194.199219 326.320312 196.46875 326.097656 198.730469 C 325.875 200.996094 325.597656 203.253906 325.261719 205.503906 C 324.929688 207.753906 324.539062 209.992188 324.09375 212.222656 C 323.652344 214.453125 323.152344 216.671875 322.601562 218.878906 C 322.046875 221.085938 321.441406 223.277344 320.78125 225.453125 C 320.121094 227.632812 319.40625 229.789062 318.640625 231.933594 C 317.875 234.074219 317.058594 236.195312 316.1875 238.296875 C 315.316406 240.398438 314.394531 242.476562 313.421875 244.535156 C 312.449219 246.589844 311.425781 248.621094 310.355469 250.628906 C 309.28125 252.632812 308.160156 254.613281 306.992188 256.5625 C 305.824219 258.515625 304.605469 260.433594 303.34375 262.328125 C 302.078125 264.21875 300.769531 266.078125 299.414062 267.90625 C 298.058594 269.730469 296.660156 271.523438 295.21875 273.28125 C 293.773438 275.039062 292.289062 276.761719 290.761719 278.449219 C 289.234375 280.132812 287.664062 281.78125 286.058594 283.390625 C 284.449219 284.996094 282.800781 286.566406 281.117188 288.09375 C 279.429688 289.621094 277.710938 291.105469 275.949219 292.546875 C 274.191406 293.992188 272.398438 295.390625 270.574219 296.746094 C 268.746094 298.101562 266.886719 299.410156 264.996094 300.671875 C 263.105469 301.9375 261.183594 303.152344 259.230469 304.324219 C 257.28125 305.492188 255.300781 306.613281 253.296875 307.6875 C 251.289062 308.757812 249.257812 309.78125 247.203125 310.753906 C 245.144531 311.726562 243.066406 312.648438 240.964844 313.519531 C 238.863281 314.386719 236.742188 315.207031 234.601562 315.972656 C 232.460938 316.738281 230.300781 317.453125 228.125 318.113281 C 225.945312 318.773438 223.753906 319.378906 221.550781 319.933594 C 219.34375 320.484375 217.125 320.984375 214.894531 321.425781 C 212.660156 321.871094 210.421875 322.257812 208.171875 322.59375 C 205.921875 322.925781 203.664062 323.207031 201.402344 323.429688 C 199.136719 323.652344 196.867188 323.820312 194.597656 323.929688 C 192.324219 324.042969 190.050781 324.097656 187.777344 324.097656 C 185.503906 324.097656 183.230469 324.042969 180.957031 323.929688 C 178.683594 323.820312 176.417969 323.652344 174.152344 323.429688 C 171.890625 323.207031 169.632812 322.925781 167.382812 322.59375 C 165.132812 322.257812 162.894531 321.871094 160.660156 321.425781 C 158.429688 320.984375 156.210938 320.484375 154.003906 319.933594 C 151.800781 319.378906 149.609375 318.773438 147.429688 318.113281 C 145.253906 317.453125 143.09375 316.738281 140.953125 315.972656 C 138.8125 315.207031 136.691406 314.386719 134.589844 313.519531 C 132.488281 312.648438 130.40625 311.726562 128.351562 310.753906 C 126.296875 309.78125 124.265625 308.757812 122.257812 307.6875 C 120.253906 306.613281 118.273438 305.492188 116.324219 304.324219 C 114.371094 303.152344 112.449219 301.9375 110.558594 300.671875 C 108.667969 299.410156 106.808594 298.101562 104.980469 296.746094 C 103.15625 295.390625 101.363281 293.992188 99.605469 292.546875 C 97.84375 291.105469 96.125 289.621094 94.4375 288.09375 C 92.753906 286.566406 91.105469 284.996094 89.496094 283.390625 C 87.890625 281.78125 86.320312 280.132812 84.792969 278.449219 C 83.265625 276.761719 81.78125 275.039062 80.335938 273.28125 C 78.894531 271.523438 77.496094 269.730469 76.140625 267.90625 C 74.785156 266.078125 73.476562 264.21875 72.210938 262.328125 C 70.949219 260.433594 69.730469 258.515625 68.5625 256.5625 C 67.394531 254.613281 66.273438 252.632812 65.199219 250.628906 C 64.128906 248.621094 63.105469 246.589844 62.132812 244.535156 C 61.160156 242.476562 60.238281 240.398438 59.367188 238.296875 C 58.496094 236.195312 57.679688 234.074219 56.914062 231.933594 C 56.148438 229.789062 55.433594 227.632812 54.773438 225.453125 C 54.113281 223.277344 53.507812 221.085938 52.953125 218.878906 C 52.402344 216.671875 51.902344 214.453125 51.457031 212.222656 C 51.015625 209.992188 50.625 207.753906 50.292969 205.503906 C 49.957031 203.253906 49.679688 200.996094 49.457031 198.730469 C 49.234375 196.46875 49.066406 194.199219 48.957031 191.929688 C 48.84375 189.65625 48.789062 187.382812 48.789062 185.109375 C 48.789062 182.835938 48.84375 180.5625 48.957031 178.289062 C 49.066406 176.015625 49.234375 173.75 49.457031 171.484375 C 49.679688 169.222656 49.957031 166.964844 50.292969 164.714844 C 50.625 162.464844 51.015625 160.222656 51.457031 157.992188 C 51.902344 155.761719 52.402344 153.542969 52.953125 151.335938 C 53.507812 149.128906 54.113281 146.9375 54.773438 144.761719 C 55.433594 142.585938 56.148438 140.425781 56.914062 138.285156 C 57.679688 136.144531 58.496094 134.019531 59.367188 131.917969 C 60.238281 129.820312 61.160156 127.738281 62.132812 125.683594 C 63.105469 123.628906 64.128906 121.597656 65.199219 119.589844 C 66.273438 117.582031 67.394531 115.605469 68.5625 113.652344 C 69.730469 111.703125 70.949219 109.78125 72.210938 107.890625 C 73.476562 106 74.785156 104.140625 76.140625 102.3125 C 77.496094 100.484375 78.894531 98.691406 80.335938 96.933594 C 81.78125 95.175781 83.265625 93.453125 84.792969 91.769531 C 86.320312 90.082031 87.890625 88.4375 89.496094 86.828125 C 91.105469 85.21875 92.753906 83.652344 94.4375 82.125 C 96.125 80.597656 97.84375 79.113281 99.605469 77.667969 C 101.363281 76.226562 103.15625 74.828125 104.980469 73.472656 C 106.808594 72.117188 108.667969 70.808594 110.558594 69.542969 C 112.449219 68.28125 114.371094 67.0625 116.324219 65.894531 C 118.273438 64.722656 120.253906 63.605469 122.257812 62.53125 C 124.265625 61.460938 126.296875 60.4375 128.351562 59.464844 C 130.40625 58.492188 132.488281 57.570312 134.589844 56.699219 C 136.691406 55.828125 138.8125 55.011719 140.953125 54.246094 C 143.09375 53.476562 145.253906 52.765625 147.429688 52.105469 C 149.609375 51.445312 151.800781 50.835938 154.003906 50.285156 C 156.210938 49.730469 158.429688 49.234375 160.660156 48.789062 C 162.894531 48.347656 165.132812 47.957031 167.382812 47.625 C 169.632812 47.289062 171.890625 47.011719 174.152344 46.789062 C 176.417969 46.566406 178.683594 46.398438 180.957031 46.289062 C 183.230469 46.175781 185.503906 46.121094 187.777344 46.121094 C 190.050781 46.121094 192.324219 46.175781 194.597656 46.289062 C 196.867188 46.398438 199.136719 46.566406 201.402344 46.789062 C 203.664062 47.011719 205.921875 47.289062 208.171875 47.625 C 210.421875 47.957031 212.660156 48.347656 214.894531 48.789062 C 217.125 49.234375 219.34375 49.730469 221.550781 50.285156 C 223.753906 50.835938 225.945312 51.445312 228.125 52.105469 C 230.300781 52.765625 232.460938 53.476562 234.601562 54.246094 C 236.742188 55.011719 238.863281 55.828125 240.964844 56.699219 C 243.066406 57.570312 245.144531 58.492188 247.203125 59.464844 C 249.257812 60.4375 251.289062 61.460938 253.296875 62.53125 C 255.300781 63.605469 257.28125 64.722656 259.230469 65.894531 C 261.183594 67.0625 263.105469 68.28125 264.996094 69.542969 C 266.886719 70.808594 268.746094 72.117188 270.574219 73.472656 C 272.398438 74.828125 274.191406 76.226562 275.949219 77.667969 C 277.710938 79.113281 279.429688 80.597656 281.117188 82.125 C 282.800781 83.652344 284.449219 85.21875 286.058594 86.828125 C 287.664062 88.4375 289.234375 90.082031 290.761719 91.769531 C 292.289062 93.453125 293.773438 95.175781 295.21875 96.933594 C 296.660156 98.691406 298.058594 100.484375 299.414062 102.3125 C 300.769531 104.140625 302.078125 106 303.34375 107.890625 C 304.605469 109.78125 305.824219 111.703125 306.992188 113.652344 C 308.160156 115.605469 309.28125 117.582031 310.355469 119.589844 C 311.425781 121.597656 312.449219 123.628906 313.421875 125.683594 C 314.394531 127.738281 315.316406 129.820312 316.1875 131.917969 C 317.058594 134.019531 317.875 136.144531 318.640625 138.285156 C 319.40625 140.425781 320.121094 142.585938 320.78125 144.761719 C 321.441406 146.9375 322.046875 149.128906 322.601562 151.335938 C 323.152344 153.542969 323.652344 155.761719 324.09375 157.992188 C 324.539062 160.222656 324.929688 162.464844 325.261719 164.714844 C 325.597656 166.964844 325.875 169.222656 326.097656 171.484375 C 326.320312 173.75 326.488281 176.015625 326.597656 178.289062 C 326.710938 180.5625 326.765625 182.835938 326.765625 185.109375 Z M 326.765625 185.109375 " fill-opacity="1" fill-rule="nonzero"/></g><path fill="#ffffff" d="M 319.539062 185.109375 C 319.539062 187.265625 319.484375 189.421875 319.378906 191.574219 C 319.273438 193.726562 319.117188 195.878906 318.90625 198.023438 C 318.691406 200.167969 318.429688 202.308594 318.113281 204.441406 C 317.796875 206.574219 317.429688 208.699219 317.007812 210.8125 C 316.585938 212.929688 316.113281 215.03125 315.589844 217.125 C 315.066406 219.214844 314.492188 221.292969 313.867188 223.355469 C 313.238281 225.421875 312.5625 227.46875 311.835938 229.496094 C 311.109375 231.527344 310.335938 233.539062 309.507812 235.53125 C 308.683594 237.523438 307.808594 239.496094 306.886719 241.445312 C 305.964844 243.394531 304.996094 245.320312 303.980469 247.21875 C 302.964844 249.121094 301.902344 251 300.792969 252.847656 C 299.683594 254.695312 298.53125 256.519531 297.332031 258.3125 C 296.136719 260.105469 294.894531 261.867188 293.609375 263.597656 C 292.324219 265.332031 291 267.03125 289.628906 268.699219 C 288.261719 270.363281 286.855469 271.996094 285.40625 273.59375 C 283.957031 275.191406 282.472656 276.753906 280.945312 278.277344 C 279.421875 279.804688 277.859375 281.289062 276.261719 282.738281 C 274.664062 284.1875 273.03125 285.59375 271.367188 286.960938 C 269.699219 288.328125 268 289.65625 266.269531 290.941406 C 264.535156 292.226562 262.773438 293.464844 260.980469 294.664062 C 259.1875 295.863281 257.367188 297.015625 255.515625 298.125 C 253.667969 299.234375 251.792969 300.296875 249.890625 301.3125 C 247.988281 302.328125 246.0625 303.296875 244.113281 304.21875 C 242.164062 305.140625 240.191406 306.015625 238.199219 306.839844 C 236.207031 307.664062 234.195312 308.441406 232.167969 309.167969 C 230.136719 309.894531 228.089844 310.570312 226.027344 311.195312 C 223.960938 311.824219 221.882812 312.398438 219.792969 312.921875 C 217.699219 313.445312 215.597656 313.917969 213.484375 314.339844 C 211.367188 314.757812 209.242188 315.128906 207.109375 315.445312 C 204.976562 315.761719 202.839844 316.023438 200.691406 316.234375 C 198.546875 316.445312 196.394531 316.605469 194.242188 316.710938 C 192.089844 316.816406 189.933594 316.871094 187.777344 316.871094 C 185.621094 316.871094 183.464844 316.816406 181.3125 316.710938 C 179.160156 316.605469 177.007812 316.445312 174.863281 316.234375 C 172.714844 316.023438 170.578125 315.761719 168.445312 315.445312 C 166.3125 315.128906 164.1875 314.757812 162.070312 314.339844 C 159.957031 313.917969 157.855469 313.445312 155.761719 312.921875 C 153.671875 312.398438 151.59375 311.824219 149.527344 311.195312 C 147.464844 310.570312 145.417969 309.894531 143.386719 309.167969 C 141.359375 308.441406 139.347656 307.664062 137.355469 306.839844 C 135.363281 306.015625 133.390625 305.140625 131.441406 304.21875 C 129.492188 303.296875 127.566406 302.328125 125.664062 301.3125 C 123.761719 300.296875 121.886719 299.234375 120.039062 298.125 C 118.1875 297.015625 116.367188 295.863281 114.574219 294.664062 C 112.78125 293.464844 111.019531 292.226562 109.285156 290.941406 C 107.554688 289.65625 105.855469 288.328125 104.1875 286.960938 C 102.523438 285.59375 100.890625 284.1875 99.292969 282.738281 C 97.695312 281.289062 96.132812 279.804688 94.609375 278.277344 C 93.082031 276.753906 91.597656 275.191406 90.148438 273.59375 C 88.699219 271.996094 87.292969 270.363281 85.925781 268.699219 C 84.554688 267.03125 83.230469 265.332031 81.945312 263.597656 C 80.660156 261.867188 79.417969 260.105469 78.222656 258.3125 C 77.023438 256.519531 75.871094 254.695312 74.761719 252.847656 C 73.652344 251 72.589844 249.121094 71.574219 247.21875 C 70.558594 245.320312 69.589844 243.394531 68.667969 241.445312 C 67.746094 239.496094 66.871094 237.523438 66.046875 235.53125 C 65.21875 233.539062 64.445312 231.527344 63.71875 229.496094 C 62.992188 227.46875 62.316406 225.421875 61.6875 223.355469 C 61.0625 221.292969 60.488281 219.214844 59.964844 217.125 C 59.441406 215.03125 58.96875 212.929688 58.546875 210.8125 C 58.125 208.699219 57.757812 206.574219 57.441406 204.441406 C 57.125 202.308594 56.863281 200.167969 56.648438 198.023438 C 56.4375 195.878906 56.28125 193.726562 56.175781 191.574219 C 56.070312 189.421875 56.015625 187.265625 56.015625 185.109375 C 56.015625 182.953125 56.070312 180.796875 56.175781 178.644531 C 56.28125 176.488281 56.4375 174.339844 56.648438 172.195312 C 56.863281 170.046875 57.125 167.910156 57.441406 165.773438 C 57.757812 163.640625 58.125 161.519531 58.546875 159.402344 C 58.96875 157.289062 59.441406 155.183594 59.964844 153.09375 C 60.488281 151 61.0625 148.925781 61.6875 146.859375 C 62.316406 144.796875 62.992188 142.75 63.71875 140.71875 C 64.445312 138.6875 65.21875 136.679688 66.046875 134.6875 C 66.871094 132.695312 67.746094 130.722656 68.667969 128.773438 C 69.589844 126.824219 70.558594 124.898438 71.574219 122.996094 C 72.589844 121.09375 73.652344 119.21875 74.761719 117.371094 C 75.871094 115.519531 77.023438 113.699219 78.222656 111.90625 C 79.417969 110.113281 80.660156 108.351562 81.945312 106.617188 C 83.230469 104.886719 84.554688 103.1875 85.925781 101.519531 C 87.292969 99.851562 88.699219 98.222656 90.148438 96.621094 C 91.597656 95.023438 93.082031 93.464844 94.609375 91.9375 C 96.132812 90.414062 97.695312 88.929688 99.292969 87.480469 C 100.890625 86.03125 102.523438 84.625 104.1875 83.253906 C 105.855469 81.886719 107.554688 80.5625 109.285156 79.277344 C 111.019531 77.992188 112.78125 76.75 114.574219 75.554688 C 116.367188 74.355469 118.1875 73.203125 120.039062 72.09375 C 121.886719 70.984375 123.761719 69.921875 125.664062 68.90625 C 127.566406 67.890625 129.492188 66.917969 131.441406 65.996094 C 133.390625 65.074219 135.363281 64.203125 137.355469 63.375 C 139.347656 62.550781 141.359375 61.777344 143.386719 61.050781 C 145.417969 60.324219 147.464844 59.648438 149.527344 59.019531 C 151.59375 58.394531 153.671875 57.820312 155.761719 57.296875 C 157.855469 56.773438 159.957031 56.300781 162.070312 55.878906 C 164.1875 55.457031 166.3125 55.089844 168.445312 54.773438 C 170.578125 54.457031 172.714844 54.191406 174.863281 53.980469 C 177.007812 53.769531 179.160156 53.613281 181.3125 53.503906 C 183.464844 53.398438 185.621094 53.347656 187.777344 53.347656 C 189.933594 53.347656 192.089844 53.398438 194.242188 53.503906 C 196.394531 53.613281 198.546875 53.769531 200.691406 53.980469 C 202.839844 54.191406 204.976562 54.457031 207.109375 54.773438 C 209.242188 55.089844 211.367188 55.457031 213.484375 55.878906 C 215.597656 56.300781 217.699219 56.773438 219.792969 57.296875 C 221.882812 57.820312 223.960938 58.394531 226.027344 59.019531 C 228.089844 59.648438 230.136719 60.324219 232.167969 61.050781 C 234.195312 61.777344 236.207031 62.550781 238.199219 63.375 C 240.191406 64.203125 242.164062 65.074219 244.113281 65.996094 C 246.0625 66.917969 247.988281 67.890625 249.890625 68.90625 C 251.789062 69.921875 253.667969 70.984375 255.515625 72.09375 C 257.367188 73.203125 259.1875 74.355469 260.980469 75.554688 C 262.773438 76.75 264.535156 77.992188 266.265625 79.277344 C 268 80.5625 269.699219 81.886719 271.367188 83.253906 C 273.03125 84.625 274.664062 86.03125 276.261719 87.480469 C 277.859375 88.929688 279.421875 90.414062 280.945312 91.9375 C 282.472656 93.464844 283.957031 95.023438 285.40625 96.621094 C 286.855469 98.222656 288.261719 99.851562 289.628906 101.519531 C 291 103.1875 292.324219 104.886719 293.609375 106.617188 C 294.894531 108.351562 296.136719 110.113281 297.332031 111.90625 C 298.53125 113.699219 299.683594 115.519531 300.792969 117.371094 C 301.902344 119.21875 302.964844 121.09375 303.980469 122.996094 C 304.996094 124.898438 305.964844 126.824219 306.886719 128.773438 C 307.808594 130.722656 308.683594 132.695312 309.507812 134.6875 C 310.335938 136.679688 311.109375 138.6875 311.835938 140.71875 C 312.5625 142.75 313.238281 144.796875 313.867188 146.859375 C 314.492188 148.925781 315.066406 151 315.589844 153.09375 C 316.113281 155.183594 316.585938 157.289062 317.007812 159.402344 C 317.429688 161.519531 317.796875 163.640625 318.113281 165.773438 C 318.429688 167.910156 318.691406 170.046875 318.90625 172.195312 C 319.117188 174.339844 319.273438 176.488281 319.378906 178.644531 C 319.484375 180.796875 319.539062 182.953125 319.539062 185.109375 Z M 319.539062 185.109375 " fill-opacity="1" fill-rule="nonzero"/><path fill="#1e3d58" d="M 187.777344 60.019531 C 189.5625 60.019531 191.347656 60.058594 193.132812 60.136719 C 194.917969 60.214844 196.699219 60.332031 198.480469 60.484375 C 200.257812 60.636719 202.035156 60.832031 203.804688 61.058594 C 205.578125 61.289062 207.34375 61.558594 209.101562 61.863281 C 210.863281 62.167969 212.617188 62.511719 214.359375 62.894531 C 216.105469 63.273438 217.84375 63.691406 219.570312 64.144531 C 221.296875 64.601562 223.015625 65.09375 224.71875 65.621094 C 226.425781 66.152344 228.121094 66.714844 229.800781 67.316406 C 231.484375 67.917969 233.152344 68.554688 234.808594 69.226562 C 236.460938 69.898438 238.101562 70.605469 239.726562 71.351562 C 241.351562 72.09375 242.960938 72.871094 244.550781 73.679688 C 246.140625 74.492188 247.714844 75.339844 249.269531 76.21875 C 250.824219 77.097656 252.359375 78.007812 253.875 78.953125 C 255.390625 79.898438 256.886719 80.875 258.359375 81.882812 C 259.835938 82.890625 261.285156 83.933594 262.714844 85.003906 C 264.144531 86.074219 265.550781 87.175781 266.933594 88.304688 C 268.316406 89.4375 269.675781 90.597656 271.007812 91.789062 C 272.339844 92.976562 273.648438 94.195312 274.925781 95.4375 C 276.207031 96.683594 277.460938 97.957031 278.6875 99.253906 C 279.914062 100.554688 281.109375 101.878906 282.28125 103.230469 C 283.449219 104.578125 284.589844 105.953125 285.699219 107.355469 C 286.8125 108.753906 287.890625 110.175781 288.941406 111.621094 C 289.988281 113.066406 291.007812 114.53125 291.996094 116.023438 C 292.980469 117.511719 293.9375 119.019531 294.859375 120.550781 C 295.78125 122.078125 296.667969 123.628906 297.523438 125.195312 C 298.378906 126.765625 299.203125 128.351562 299.992188 129.953125 C 300.777344 131.554688 301.53125 133.175781 302.25 134.8125 C 302.96875 136.445312 303.652344 138.097656 304.300781 139.761719 C 304.949219 141.425781 305.558594 143.101562 306.136719 144.792969 C 306.710938 146.484375 307.25 148.1875 307.753906 149.902344 C 308.257812 151.613281 308.722656 153.339844 309.152344 155.074219 C 309.582031 156.808594 309.972656 158.550781 310.328125 160.300781 C 310.683594 162.050781 311 163.808594 311.28125 165.574219 C 311.558594 167.335938 311.800781 169.105469 312.003906 170.878906 C 312.207031 172.65625 312.375 174.433594 312.5 176.214844 C 312.628906 177.996094 312.71875 179.78125 312.769531 181.566406 C 312.820312 183.351562 312.832031 185.136719 312.808594 186.921875 C 312.78125 188.710938 312.71875 190.492188 312.617188 192.277344 C 312.515625 194.0625 312.375 195.839844 312.195312 197.617188 C 312.019531 199.394531 311.800781 201.167969 311.546875 202.9375 C 311.292969 204.703125 311.003906 206.464844 310.671875 208.222656 C 310.34375 209.976562 309.976562 211.726562 309.570312 213.464844 C 309.167969 215.207031 308.726562 216.9375 308.246094 218.65625 C 307.769531 220.378906 307.253906 222.085938 306.703125 223.785156 C 306.152344 225.484375 305.5625 227.171875 304.9375 228.84375 C 304.316406 230.519531 303.65625 232.179688 302.960938 233.824219 C 302.265625 235.46875 301.535156 237.101562 300.769531 238.714844 C 300.007812 240.328125 299.207031 241.925781 298.375 243.503906 C 297.542969 245.085938 296.675781 246.648438 295.773438 248.191406 C 294.875 249.734375 293.941406 251.253906 292.976562 252.757812 C 292.011719 254.261719 291.015625 255.742188 289.984375 257.203125 C 288.957031 258.664062 287.898438 260.101562 286.808594 261.515625 C 285.714844 262.929688 284.597656 264.320312 283.445312 265.6875 C 282.296875 267.054688 281.117188 268.398438 279.910156 269.714844 C 278.703125 271.03125 277.46875 272.320312 276.207031 273.585938 C 274.941406 274.847656 273.65625 276.082031 272.339844 277.292969 C 271.023438 278.5 269.683594 279.679688 268.316406 280.832031 C 266.949219 281.980469 265.558594 283.101562 264.144531 284.195312 C 262.730469 285.285156 261.296875 286.347656 259.835938 287.375 C 258.375 288.40625 256.894531 289.40625 255.394531 290.371094 C 253.890625 291.335938 252.367188 292.269531 250.828125 293.171875 C 249.285156 294.074219 247.722656 294.941406 246.144531 295.777344 C 244.566406 296.609375 242.96875 297.410156 241.355469 298.175781 C 239.742188 298.941406 238.113281 299.671875 236.46875 300.371094 C 234.582031 301.164062 232.675781 301.914062 230.753906 302.613281 C 228.832031 303.316406 226.890625 303.96875 224.9375 304.578125 C 222.984375 305.183594 221.015625 305.742188 219.03125 306.25 C 217.050781 306.761719 215.054688 307.222656 213.050781 307.632812 C 211.046875 308.046875 209.03125 308.40625 207.011719 308.722656 C 204.988281 309.035156 202.957031 309.296875 200.921875 309.511719 C 198.886719 309.726562 196.847656 309.886719 194.804688 310.003906 C 192.761719 310.117188 190.714844 310.179688 188.667969 310.191406 C 186.621094 310.203125 184.574219 310.167969 182.53125 310.082031 C 180.488281 309.992188 178.445312 309.855469 176.40625 309.667969 C 174.367188 309.480469 172.335938 309.242188 170.308594 308.957031 C 168.285156 308.667969 166.265625 308.332031 164.253906 307.945312 C 162.246094 307.558594 160.246094 307.125 158.257812 306.640625 C 156.269531 306.15625 154.292969 305.625 152.332031 305.042969 C 150.367188 304.460938 148.421875 303.832031 146.488281 303.15625 C 144.558594 302.476562 142.644531 301.753906 140.75 300.984375 C 138.851562 300.214844 136.976562 299.394531 135.121094 298.535156 C 133.265625 297.671875 131.429688 296.761719 129.617188 295.808594 C 127.808594 294.855469 126.019531 293.859375 124.257812 292.820312 C 122.496094 291.78125 120.757812 290.695312 119.050781 289.570312 C 117.339844 288.445312 115.660156 287.277344 114.007812 286.070312 C 112.355469 284.863281 110.734375 283.613281 109.144531 282.328125 C 107.550781 281.039062 105.996094 279.710938 104.46875 278.347656 C 102.941406 276.984375 101.453125 275.582031 99.996094 274.144531 C 98.539062 272.707031 97.117188 271.238281 95.730469 269.730469 C 94.347656 268.222656 93 266.683594 91.691406 265.109375 C 90.382812 263.535156 89.109375 261.929688 87.878906 260.296875 C 86.648438 258.660156 85.460938 256.996094 84.3125 255.300781 C 83.164062 253.609375 82.054688 251.886719 80.992188 250.136719 C 79.925781 248.390625 78.90625 246.617188 77.929688 244.820312 C 76.953125 243.019531 76.019531 241.199219 75.132812 239.355469 C 74.242188 237.511719 73.402344 235.644531 72.605469 233.761719 C 71.808594 231.875 71.058594 229.972656 70.355469 228.050781 C 69.652344 226.128906 68.996094 224.1875 68.390625 222.234375 C 67.78125 220.28125 67.222656 218.3125 66.710938 216.332031 C 66.199219 214.347656 65.738281 212.355469 65.324219 210.351562 C 64.910156 208.347656 64.546875 206.332031 64.230469 204.308594 C 63.917969 202.289062 63.652344 200.257812 63.4375 198.222656 C 63.222656 196.1875 63.054688 194.148438 62.941406 192.105469 C 62.824219 190.0625 62.761719 188.015625 62.746094 185.96875 C 62.730469 183.921875 62.765625 181.878906 62.851562 179.832031 C 62.9375 177.789062 63.074219 175.746094 63.261719 173.707031 C 63.445312 171.667969 63.679688 169.636719 63.96875 167.609375 C 64.253906 165.582031 64.589844 163.566406 64.972656 161.554688 C 65.355469 159.542969 65.792969 157.546875 66.273438 155.554688 C 66.757812 153.566406 67.289062 151.589844 67.867188 149.628906 C 68.449219 147.664062 69.074219 145.71875 69.75 143.785156 C 70.425781 141.855469 71.148438 139.9375 71.917969 138.042969 C 72.6875 136.144531 73.5 134.269531 74.363281 132.414062 C 75.222656 130.554688 76.132812 128.722656 77.082031 126.910156 C 78.035156 125.097656 79.027344 123.308594 80.066406 121.546875 C 81.105469 119.78125 82.1875 118.046875 83.3125 116.335938 C 84.4375 114.625 85.601562 112.945312 86.808594 111.289062 C 88.015625 109.636719 89.265625 108.015625 90.550781 106.421875 C 91.835938 104.832031 93.160156 103.273438 94.523438 101.746094 C 95.886719 100.21875 97.289062 98.726562 98.722656 97.269531 C 100.160156 95.808594 101.628906 94.386719 103.136719 93 C 104.644531 91.617188 106.183594 90.265625 107.753906 88.957031 C 109.328125 87.648438 110.929688 86.375 112.5625 85.144531 C 114.199219 83.910156 115.863281 82.722656 117.554688 81.570312 C 119.25 80.421875 120.96875 79.3125 122.714844 78.246094 C 124.464844 77.179688 126.238281 76.160156 128.035156 75.179688 C 129.832031 74.203125 131.652344 73.269531 133.496094 72.378906 C 135.339844 71.488281 137.203125 70.644531 139.085938 69.847656 C 146.789062 66.589844 154.738281 64.132812 162.9375 62.476562 C 171.132812 60.820312 179.414062 60.003906 187.777344 60.019531 M 187.777344 56.683594 C 116.851562 56.683594 59.351562 114.179688 59.351562 185.109375 C 59.351562 256.035156 116.851562 313.535156 187.777344 313.535156 C 258.703125 313.535156 316.203125 256.035156 316.203125 185.109375 C 316.203125 114.179688 258.703125 56.683594 187.777344 56.683594 Z M 187.777344 56.683594 " fill-opacity="1" fill-rule="nonzero"/><path fill="#1e3d58" d="M 187.777344 107.273438 C 189.261719 107.273438 190.75 107.316406 192.230469 107.402344 C 193.714844 107.488281 195.195312 107.613281 196.671875 107.785156 C 198.148438 107.953125 199.621094 108.167969 201.082031 108.421875 C 202.546875 108.675781 204.003906 108.96875 205.453125 109.308594 C 206.898438 109.644531 208.335938 110.023438 209.761719 110.445312 C 211.1875 110.863281 212.597656 111.324219 214 111.824219 C 215.398438 112.324219 216.78125 112.867188 218.148438 113.445312 C 219.519531 114.027344 220.871094 114.644531 222.203125 115.300781 C 223.535156 115.960938 224.847656 116.652344 226.140625 117.386719 C 227.433594 118.117188 228.707031 118.886719 229.953125 119.695312 C 231.203125 120.5 232.429688 121.339844 233.628906 122.214844 C 234.832031 123.089844 236.003906 124 237.15625 124.941406 C 238.304688 125.886719 239.425781 126.859375 240.515625 127.867188 C 241.609375 128.875 242.671875 129.910156 243.707031 130.980469 C 244.742188 132.046875 245.742188 133.144531 246.714844 134.269531 C 247.683594 135.394531 248.621094 136.546875 249.527344 137.726562 C 250.433594 138.90625 251.300781 140.109375 252.136719 141.339844 C 252.972656 142.566406 253.773438 143.820312 254.539062 145.09375 C 255.300781 146.367188 256.027344 147.664062 256.71875 148.980469 C 257.410156 150.296875 258.058594 151.632812 258.671875 152.984375 C 259.285156 154.339844 259.859375 155.710938 260.394531 157.097656 C 260.929688 158.484375 261.425781 159.882812 261.878906 161.300781 C 262.335938 162.714844 262.75 164.140625 263.121094 165.578125 C 263.496094 167.019531 263.824219 168.464844 264.117188 169.925781 C 264.40625 171.382812 264.652344 172.847656 264.859375 174.320312 C 265.066406 175.789062 265.230469 177.265625 265.351562 178.75 C 265.472656 180.230469 265.550781 181.710938 265.585938 183.199219 C 265.625 184.683594 265.617188 186.171875 265.570312 187.65625 C 265.519531 189.140625 265.429688 190.625 265.296875 192.105469 C 265.164062 193.585938 264.988281 195.058594 264.769531 196.53125 C 264.550781 198 264.289062 199.460938 263.988281 200.917969 C 263.6875 202.371094 263.34375 203.816406 262.960938 205.253906 C 262.574219 206.6875 262.148438 208.113281 261.683594 209.523438 C 261.214844 210.933594 260.710938 212.332031 260.164062 213.714844 C 259.617188 215.097656 259.03125 216.460938 258.410156 217.808594 C 257.785156 219.160156 257.121094 220.488281 256.421875 221.800781 C 255.71875 223.109375 254.984375 224.398438 254.207031 225.667969 C 253.433594 226.9375 252.625 228.183594 251.777344 229.402344 C 250.933594 230.625 250.050781 231.824219 249.136719 232.996094 C 248.222656 234.167969 247.277344 235.3125 246.296875 236.429688 C 245.316406 237.546875 244.304688 238.632812 243.261719 239.695312 C 242.21875 240.753906 241.148438 241.78125 240.046875 242.78125 C 238.945312 243.777344 237.816406 244.742188 236.660156 245.675781 C 235.503906 246.609375 234.320312 247.511719 233.113281 248.375 C 231.90625 249.242188 230.675781 250.070312 229.417969 250.867188 C 228.164062 251.664062 226.886719 252.421875 225.585938 253.144531 C 224.289062 253.863281 222.96875 254.546875 221.628906 255.195312 C 220.292969 255.839844 218.9375 256.449219 217.5625 257.019531 C 216.191406 257.585938 214.800781 258.117188 213.398438 258.605469 C 211.996094 259.09375 210.578125 259.542969 209.148438 259.949219 C 207.71875 260.359375 206.28125 260.726562 204.832031 261.050781 C 203.378906 261.378906 201.921875 261.660156 200.457031 261.902344 C 198.988281 262.144531 197.519531 262.34375 196.039062 262.503906 C 194.5625 262.660156 193.082031 262.777344 191.597656 262.847656 C 190.113281 262.921875 188.625 262.953125 187.140625 262.941406 C 185.65625 262.929688 184.167969 262.875 182.6875 262.777344 C 181.203125 262.679688 179.726562 262.539062 178.25 262.355469 C 176.773438 262.175781 175.304688 261.953125 173.84375 261.683594 C 172.382812 261.417969 170.929688 261.113281 169.484375 260.761719 C 168.039062 260.414062 166.605469 260.023438 165.183594 259.589844 C 163.761719 259.160156 162.351562 258.6875 160.957031 258.175781 C 159.5625 257.664062 158.183594 257.113281 156.820312 256.519531 C 155.457031 255.929688 154.109375 255.300781 152.78125 254.632812 C 151.453125 253.964844 150.148438 253.257812 148.859375 252.515625 C 147.574219 251.773438 146.308594 250.992188 145.066406 250.175781 C 143.824219 249.359375 142.605469 248.511719 141.410156 247.625 C 140.21875 246.738281 139.050781 245.820312 137.910156 244.871094 C 136.769531 243.917969 135.65625 242.933594 134.570312 241.917969 C 133.484375 240.902344 132.429688 239.855469 131.40625 238.777344 C 130.382812 237.703125 129.386719 236.597656 128.425781 235.464844 C 127.464844 234.332031 126.535156 233.171875 125.640625 231.984375 C 124.746094 230.796875 123.886719 229.585938 123.0625 228.351562 C 122.234375 227.113281 121.445312 225.855469 120.691406 224.574219 C 119.9375 223.292969 119.222656 221.992188 118.542969 220.671875 C 117.863281 219.347656 117.222656 218.007812 116.621094 216.648438 C 116.019531 215.292969 115.457031 213.917969 114.933594 212.527344 C 114.410156 211.136719 113.925781 209.730469 113.480469 208.3125 C 113.039062 206.894531 112.636719 205.460938 112.277344 204.019531 C 111.914062 202.578125 111.59375 201.128906 111.316406 199.667969 C 111.039062 198.207031 110.804688 196.742188 110.609375 195.269531 C 110.414062 193.792969 110.265625 192.316406 110.15625 190.835938 C 110.046875 189.351562 109.976562 187.867188 109.953125 186.382812 C 109.929688 184.894531 109.949219 183.410156 110.007812 181.925781 C 110.070312 180.441406 110.171875 178.957031 110.316406 177.480469 C 110.464844 176 110.652344 174.527344 110.882812 173.058594 C 111.113281 171.589844 111.382812 170.128906 111.699219 168.675781 C 112.011719 167.222656 112.367188 165.78125 112.761719 164.347656 C 113.160156 162.917969 113.597656 161.496094 114.074219 160.089844 C 114.550781 158.683594 115.070312 157.289062 115.625 155.914062 C 116.183594 154.535156 116.78125 153.175781 117.417969 151.832031 C 118.050781 150.488281 118.726562 149.164062 119.4375 147.859375 C 120.148438 146.554688 120.894531 145.269531 121.679688 144.007812 C 122.464844 142.746094 123.285156 141.507812 124.140625 140.292969 C 124.996094 139.078125 125.886719 137.886719 126.8125 136.722656 C 127.734375 135.558594 128.691406 134.421875 129.679688 133.3125 C 130.667969 132.203125 131.691406 131.121094 132.742188 130.070312 C 134.539062 128.265625 136.421875 126.546875 138.390625 124.925781 C 140.359375 123.304688 142.402344 121.785156 144.519531 120.363281 C 146.636719 118.945312 148.820312 117.632812 151.070312 116.429688 C 153.316406 115.226562 155.621094 114.136719 157.976562 113.160156 C 160.332031 112.183594 162.730469 111.328125 165.171875 110.589844 C 167.613281 109.851562 170.082031 109.234375 172.585938 108.738281 C 175.085938 108.246094 177.605469 107.875 180.144531 107.632812 C 182.683594 107.386719 185.226562 107.269531 187.777344 107.273438 M 187.777344 103.9375 C 186.449219 103.9375 185.121094 103.972656 183.792969 104.035156 C 182.46875 104.101562 181.144531 104.199219 179.820312 104.328125 C 178.5 104.460938 177.179688 104.621094 175.867188 104.816406 C 174.554688 105.011719 173.246094 105.238281 171.941406 105.5 C 170.640625 105.757812 169.34375 106.050781 168.054688 106.371094 C 166.765625 106.695312 165.484375 107.046875 164.214844 107.433594 C 162.945312 107.820312 161.683594 108.238281 160.433594 108.683594 C 159.179688 109.132812 157.941406 109.609375 156.714844 110.117188 C 155.488281 110.625 154.273438 111.164062 153.074219 111.730469 C 151.871094 112.300781 150.6875 112.898438 149.515625 113.523438 C 148.34375 114.148438 147.1875 114.804688 146.046875 115.488281 C 144.910156 116.171875 143.785156 116.878906 142.683594 117.617188 C 141.578125 118.355469 140.492188 119.121094 139.425781 119.914062 C 138.359375 120.703125 137.3125 121.519531 136.285156 122.363281 C 135.257812 123.207031 134.25 124.074219 133.265625 124.964844 C 132.28125 125.859375 131.320312 126.773438 130.382812 127.714844 C 129.441406 128.652344 128.527344 129.613281 127.632812 130.597656 C 126.742188 131.582031 125.875 132.589844 125.03125 133.617188 C 124.191406 134.640625 123.371094 135.6875 122.582031 136.757812 C 121.789062 137.824219 121.023438 138.910156 120.289062 140.011719 C 119.550781 141.117188 118.839844 142.238281 118.15625 143.378906 C 117.472656 144.519531 116.816406 145.675781 116.191406 146.84375 C 115.566406 148.015625 114.96875 149.203125 114.402344 150.402344 C 113.832031 151.605469 113.292969 152.820312 112.785156 154.046875 C 112.277344 155.273438 111.800781 156.511719 111.351562 157.761719 C 110.90625 159.015625 110.488281 160.273438 110.101562 161.546875 C 109.71875 162.816406 109.363281 164.097656 109.039062 165.386719 C 108.71875 166.675781 108.425781 167.96875 108.167969 169.273438 C 107.910156 170.578125 107.679688 171.882812 107.484375 173.199219 C 107.292969 174.511719 107.128906 175.832031 107 177.152344 C 106.867188 178.476562 106.769531 179.800781 106.707031 181.125 C 106.640625 182.453125 106.609375 183.78125 106.609375 185.109375 C 106.609375 186.4375 106.640625 187.765625 106.707031 189.089844 C 106.769531 190.417969 106.867188 191.742188 107 193.066406 C 107.128906 194.386719 107.292969 195.703125 107.484375 197.019531 C 107.679688 198.332031 107.910156 199.640625 108.167969 200.945312 C 108.425781 202.246094 108.71875 203.542969 109.039062 204.832031 C 109.363281 206.121094 109.71875 207.398438 110.101562 208.671875 C 110.488281 209.941406 110.90625 211.203125 111.351562 212.453125 C 111.800781 213.703125 112.277344 214.945312 112.785156 216.171875 C 113.292969 217.398438 113.832031 218.613281 114.402344 219.8125 C 114.96875 221.015625 115.566406 222.199219 116.191406 223.371094 C 116.816406 224.542969 117.472656 225.699219 118.15625 226.839844 C 118.839844 227.976562 119.550781 229.097656 120.289062 230.203125 C 121.023438 231.308594 121.789062 232.394531 122.582031 233.460938 C 123.371094 234.527344 124.191406 235.574219 125.03125 236.601562 C 125.875 237.628906 126.742188 238.632812 127.632812 239.617188 C 128.527344 240.601562 129.441406 241.566406 130.382812 242.503906 C 131.320312 243.445312 132.28125 244.359375 133.265625 245.25 C 134.25 246.144531 135.257812 247.011719 136.285156 247.855469 C 137.3125 248.695312 138.359375 249.511719 139.425781 250.304688 C 140.492188 251.097656 141.578125 251.859375 142.683594 252.597656 C 143.785156 253.335938 144.910156 254.046875 146.046875 254.730469 C 147.1875 255.414062 148.34375 256.066406 149.515625 256.695312 C 150.6875 257.320312 151.871094 257.917969 153.074219 258.484375 C 154.273438 259.054688 155.488281 259.589844 156.714844 260.101562 C 157.941406 260.609375 159.179688 261.085938 160.433594 261.535156 C 161.683594 261.980469 162.945312 262.398438 164.214844 262.78125 C 165.484375 263.167969 166.765625 263.523438 168.054688 263.847656 C 169.34375 264.167969 170.640625 264.460938 171.941406 264.71875 C 173.246094 264.976562 174.554688 265.203125 175.867188 265.398438 C 177.179688 265.59375 178.5 265.757812 179.820312 265.886719 C 181.144531 266.019531 182.46875 266.117188 183.792969 266.179688 C 185.121094 266.246094 186.449219 266.277344 187.777344 266.277344 C 189.105469 266.277344 190.433594 266.246094 191.761719 266.179688 C 193.085938 266.117188 194.410156 266.019531 195.734375 265.886719 C 197.054688 265.757812 198.375 265.59375 199.6875 265.398438 C 201 265.203125 202.308594 264.976562 203.613281 264.71875 C 204.914062 264.460938 206.210938 264.167969 207.5 263.847656 C 208.789062 263.523438 210.070312 263.167969 211.339844 262.78125 C 212.609375 262.398438 213.871094 261.980469 215.121094 261.535156 C 216.375 261.085938 217.613281 260.609375 218.839844 260.101562 C 220.066406 259.589844 221.28125 259.054688 222.480469 258.484375 C 223.683594 257.917969 224.867188 257.320312 226.039062 256.695312 C 227.210938 256.066406 228.367188 255.414062 229.507812 254.730469 C 230.644531 254.046875 231.769531 253.335938 232.871094 252.597656 C 233.976562 251.859375 235.0625 251.097656 236.128906 250.304688 C 237.195312 249.511719 238.242188 248.695312 239.269531 247.855469 C 240.296875 247.011719 241.304688 246.144531 242.289062 245.25 C 243.273438 244.359375 244.234375 243.445312 245.171875 242.503906 C 246.113281 241.566406 247.027344 240.601562 247.921875 239.617188 C 248.8125 238.632812 249.679688 237.628906 250.523438 236.601562 C 251.363281 235.574219 252.183594 234.527344 252.972656 233.460938 C 253.765625 232.394531 254.53125 231.308594 255.265625 230.203125 C 256.003906 229.097656 256.714844 227.976562 257.398438 226.839844 C 258.082031 225.699219 258.734375 224.542969 259.363281 223.371094 C 259.988281 222.199219 260.585938 221.015625 261.152344 219.8125 C 261.722656 218.613281 262.261719 217.398438 262.769531 216.171875 C 263.277344 214.945312 263.753906 213.703125 264.203125 212.453125 C 264.648438 211.203125 265.066406 209.941406 265.453125 208.671875 C 265.835938 207.398438 266.191406 206.121094 266.515625 204.832031 C 266.835938 203.542969 267.128906 202.246094 267.386719 200.945312 C 267.644531 199.640625 267.875 198.332031 268.066406 197.019531 C 268.261719 195.703125 268.425781 194.386719 268.554688 193.066406 C 268.6875 191.742188 268.785156 190.417969 268.847656 189.089844 C 268.914062 187.765625 268.945312 186.4375 268.945312 185.109375 C 268.945312 183.78125 268.914062 182.453125 268.847656 181.125 C 268.785156 179.800781 268.6875 178.476562 268.554688 177.152344 C 268.425781 175.832031 268.261719 174.511719 268.070312 173.199219 C 267.875 171.882812 267.644531 170.578125 267.386719 169.273438 C 267.128906 167.96875 266.835938 166.675781 266.515625 165.386719 C 266.191406 164.097656 265.835938 162.816406 265.453125 161.546875 C 265.066406 160.273438 264.648438 159.015625 264.203125 157.761719 C 263.753906 156.511719 263.277344 155.273438 262.769531 154.046875 C 262.261719 152.820312 261.722656 151.605469 261.152344 150.402344 C 260.585938 149.203125 259.988281 148.015625 259.363281 146.84375 C 258.734375 145.675781 258.082031 144.519531 257.398438 143.378906 C 256.714844 142.238281 256.003906 141.117188 255.265625 140.011719 C 254.53125 138.910156 253.765625 137.824219 252.972656 136.757812 C 252.183594 135.6875 251.363281 134.640625 250.523438 133.617188 C 249.679688 132.589844 248.8125 131.582031 247.921875 130.597656 C 247.027344 129.613281 246.113281 128.652344 245.171875 127.714844 C 244.234375 126.773438 243.273438 125.859375 242.289062 124.964844 C 241.304688 124.074219 240.296875 123.207031 239.269531 122.363281 C 238.242188 121.519531 237.195312 120.703125 236.128906 119.914062 C 235.0625 119.121094 233.976562 118.355469 232.871094 117.617188 C 231.769531 116.878906 230.644531 116.171875 229.507812 115.488281 C 228.367188 114.804688 227.210938 114.148438 226.039062 113.523438 C 224.867188 112.898438 223.683594 112.300781 222.480469 111.730469 C 221.28125 111.164062 220.066406 110.625 218.839844 110.117188 C 217.613281 109.609375 216.375 109.132812 215.121094 108.683594 C 213.871094 108.238281 212.609375 107.820312 211.339844 107.433594 C 210.070312 107.046875 208.789062 106.695312 207.5 106.371094 C 206.210938 106.050781 204.914062 105.757812 203.613281 105.5 C 202.308594 105.238281 201 105.011719 199.6875 104.816406 C 198.375 104.621094 197.054688 104.460938 195.734375 104.328125 C 194.410156 104.199219 193.085938 104.101562 191.761719 104.035156 C 190.433594 103.972656 189.105469 103.9375 187.777344 103.9375 Z M 187.777344 103.9375 " fill-opacity="1" fill-rule="nonzero"/><path fill="#1e3d58" d="M 262.277344 185.109375 C 262.277344 186.328125 262.246094 187.546875 262.1875 188.765625 C 262.125 189.980469 262.035156 191.199219 261.917969 192.410156 C 261.796875 193.625 261.648438 194.832031 261.46875 196.039062 C 261.289062 197.246094 261.082031 198.445312 260.84375 199.640625 C 260.605469 200.839844 260.339844 202.027344 260.042969 203.210938 C 259.746094 204.394531 259.421875 205.566406 259.066406 206.734375 C 258.714844 207.902344 258.332031 209.058594 257.921875 210.207031 C 257.511719 211.355469 257.070312 212.492188 256.605469 213.617188 C 256.136719 214.746094 255.644531 215.859375 255.121094 216.960938 C 254.601562 218.0625 254.054688 219.152344 253.480469 220.226562 C 252.902344 221.300781 252.304688 222.363281 251.675781 223.410156 C 251.050781 224.453125 250.398438 225.484375 249.71875 226.496094 C 249.042969 227.511719 248.339844 228.507812 247.613281 229.488281 C 246.886719 230.464844 246.136719 231.425781 245.363281 232.371094 C 244.589844 233.3125 243.796875 234.234375 242.976562 235.136719 C 242.15625 236.042969 241.316406 236.925781 240.457031 237.785156 C 239.59375 238.648438 238.710938 239.488281 237.808594 240.308594 C 236.902344 241.125 235.980469 241.921875 235.039062 242.695312 C 234.097656 243.46875 233.136719 244.21875 232.15625 244.945312 C 231.175781 245.671875 230.179688 246.375 229.167969 247.050781 C 228.152344 247.730469 227.121094 248.382812 226.078125 249.007812 C 225.03125 249.632812 223.96875 250.234375 222.894531 250.808594 C 221.820312 251.386719 220.730469 251.933594 219.628906 252.453125 C 218.527344 252.976562 217.414062 253.46875 216.285156 253.9375 C 215.160156 254.402344 214.023438 254.839844 212.875 255.25 C 211.726562 255.664062 210.570312 256.046875 209.402344 256.398438 C 208.234375 256.753906 207.0625 257.078125 205.878906 257.375 C 204.695312 257.671875 203.507812 257.9375 202.3125 258.175781 C 201.117188 258.414062 199.914062 258.621094 198.707031 258.800781 C 197.503906 258.980469 196.292969 259.128906 195.078125 259.25 C 193.867188 259.367188 192.652344 259.457031 191.433594 259.515625 C 190.214844 259.578125 188.996094 259.605469 187.777344 259.605469 C 186.558594 259.605469 185.339844 259.578125 184.121094 259.515625 C 182.902344 259.457031 181.6875 259.367188 180.476562 259.25 C 179.261719 259.128906 178.050781 258.980469 176.847656 258.800781 C 175.640625 258.621094 174.4375 258.414062 173.242188 258.175781 C 172.046875 257.9375 170.859375 257.671875 169.675781 257.375 C 168.492188 257.078125 167.316406 256.753906 166.152344 256.398438 C 164.984375 256.046875 163.828125 255.664062 162.679688 255.25 C 161.53125 254.839844 160.394531 254.402344 159.269531 253.9375 C 158.140625 253.46875 157.027344 252.976562 155.925781 252.453125 C 154.824219 251.933594 153.734375 251.386719 152.660156 250.808594 C 151.582031 250.234375 150.523438 249.632812 149.476562 249.007812 C 148.433594 248.382812 147.402344 247.730469 146.386719 247.050781 C 145.375 246.375 144.378906 245.671875 143.398438 244.945312 C 142.417969 244.21875 141.457031 243.46875 140.515625 242.695312 C 139.574219 241.921875 138.652344 241.125 137.746094 240.308594 C 136.84375 239.488281 135.960938 238.648438 135.097656 237.785156 C 134.238281 236.925781 133.398438 236.042969 132.578125 235.136719 C 131.757812 234.234375 130.964844 233.3125 130.191406 232.371094 C 129.414062 231.425781 128.667969 230.464844 127.941406 229.488281 C 127.214844 228.507812 126.511719 227.511719 125.835938 226.496094 C 125.15625 225.484375 124.503906 224.453125 123.878906 223.410156 C 123.25 222.363281 122.652344 221.300781 122.074219 220.226562 C 121.5 219.152344 120.953125 218.0625 120.433594 216.960938 C 119.910156 215.859375 119.417969 214.746094 118.949219 213.617188 C 118.484375 212.492188 118.042969 211.355469 117.632812 210.207031 C 117.222656 209.058594 116.839844 207.902344 116.488281 206.734375 C 116.132812 205.566406 115.808594 204.394531 115.511719 203.210938 C 115.214844 202.027344 114.949219 200.839844 114.710938 199.640625 C 114.472656 198.445312 114.265625 197.246094 114.085938 196.039062 C 113.90625 194.832031 113.757812 193.625 113.636719 192.410156 C 113.519531 191.199219 113.429688 189.980469 113.367188 188.765625 C 113.308594 187.546875 113.277344 186.328125 113.277344 185.109375 C 113.277344 183.890625 113.308594 182.671875 113.367188 181.453125 C 113.429688 180.234375 113.519531 179.019531 113.636719 177.804688 C 113.757812 176.59375 113.90625 175.382812 114.085938 174.175781 C 114.265625 172.972656 114.472656 171.769531 114.710938 170.574219 C 114.949219 169.378906 115.214844 168.191406 115.511719 167.007812 C 115.808594 165.824219 116.132812 164.648438 116.488281 163.484375 C 116.839844 162.316406 117.222656 161.160156 117.632812 160.011719 C 118.042969 158.863281 118.484375 157.726562 118.949219 156.597656 C 119.417969 155.472656 119.910156 154.359375 120.433594 153.257812 C 120.953125 152.15625 121.5 151.066406 122.074219 149.992188 C 122.652344 148.914062 123.25 147.855469 123.878906 146.808594 C 124.503906 145.761719 125.15625 144.734375 125.835938 143.71875 C 126.511719 142.707031 127.214844 141.710938 127.941406 140.730469 C 128.667969 139.75 129.414062 138.789062 130.191406 137.847656 C 130.964844 136.90625 131.757812 135.980469 132.578125 135.078125 C 133.398438 134.175781 134.238281 133.292969 135.097656 132.429688 C 135.960938 131.570312 136.84375 130.726562 137.746094 129.910156 C 138.652344 129.089844 139.574219 128.292969 140.515625 127.519531 C 141.457031 126.746094 142.417969 125.996094 143.398438 125.269531 C 144.378906 124.546875 145.375 123.84375 146.386719 123.164062 C 147.402344 122.488281 148.433594 121.835938 149.476562 121.210938 C 150.523438 120.582031 151.582031 119.980469 152.660156 119.40625 C 153.734375 118.832031 154.824219 118.285156 155.925781 117.761719 C 157.027344 117.242188 158.140625 116.746094 159.269531 116.28125 C 160.394531 115.816406 161.53125 115.375 162.679688 114.964844 C 163.828125 114.554688 164.984375 114.171875 166.152344 113.820312 C 167.316406 113.464844 168.492188 113.140625 169.675781 112.84375 C 170.859375 112.546875 172.046875 112.28125 173.242188 112.042969 C 174.4375 111.804688 175.640625 111.597656 176.847656 111.417969 C 178.050781 111.238281 179.261719 111.089844 180.476562 110.96875 C 181.6875 110.851562 182.902344 110.761719 184.121094 110.699219 C 185.339844 110.640625 186.558594 110.609375 187.777344 110.609375 C 188.996094 110.609375 190.214844 110.640625 191.433594 110.699219 C 192.652344 110.761719 193.867188 110.851562 195.078125 110.96875 C 196.292969 111.089844 197.503906 111.238281 198.707031 111.417969 C 199.914062 111.597656 201.117188 111.804688 202.3125 112.042969 C 203.507812 112.28125 204.695312 112.546875 205.878906 112.84375 C 207.0625 113.140625 208.234375 113.464844 209.402344 113.820312 C 210.570312 114.171875 211.726562 114.554688 212.875 114.964844 C 214.023438 115.375 215.160156 115.816406 216.285156 116.28125 C 217.414062 116.746094 218.527344 117.242188 219.628906 117.761719 C 220.730469 118.285156 221.820312 118.832031 222.894531 119.40625 C 223.96875 119.980469 225.03125 120.582031 226.078125 121.210938 C 227.121094 121.835938 228.152344 122.488281 229.167969 123.164062 C 230.179688 123.84375 231.175781 124.546875 232.15625 125.269531 C 233.136719 125.996094 234.097656 126.746094 235.039062 127.519531 C 235.980469 128.292969 236.902344 129.089844 237.808594 129.910156 C 238.710938 130.726562 239.59375 131.570312 240.457031 132.429688 C 241.316406 133.292969 242.15625 134.175781 242.976562 135.078125 C 243.796875 135.980469 244.589844 136.90625 245.363281 137.847656 C 246.136719 138.789062 246.886719 139.75 247.613281 140.730469 C 248.339844 141.710938 249.042969 142.707031 249.71875 143.71875 C 250.398438 144.734375 251.050781 145.761719 251.675781 146.808594 C 252.304688 147.855469 252.902344 148.914062 253.480469 149.992188 C 254.054688 151.066406 254.601562 152.15625 255.121094 153.257812 C 255.644531 154.359375 256.136719 155.472656 256.605469 156.597656 C 257.070312 157.726562 257.511719 158.863281 257.921875 160.011719 C 258.332031 161.160156 258.714844 162.316406 259.066406 163.484375 C 259.421875 164.648438 259.746094 165.824219 260.042969 167.007812 C 260.339844 168.191406 260.605469 169.378906 260.84375 170.574219 C 261.082031 171.769531 261.289062 172.972656 261.46875 174.175781 C 261.648438 175.382812 261.796875 176.59375 261.917969 177.804688 C 262.035156 179.019531 262.125 180.234375 262.1875 181.453125 C 262.246094 182.671875 262.277344 183.890625 262.277344 185.109375 Z M 262.277344 185.109375 " fill-opacity="1" fill-rule="nonzero"/><path fill="#1e3d58" d="M 310.644531 185.109375 C 310.644531 252.964844 255.632812 307.976562 187.777344 307.976562 C 119.921875 307.976562 64.910156 252.964844 64.910156 185.109375 L 104.382812 185.109375 C 104.382812 231.46875 141.722656 269.058594 187.777344 269.058594 C 233.832031 269.058594 271.171875 231.46875 271.171875 185.109375 Z M 310.644531 185.109375 " fill-opacity="1" fill-rule="nonzero"/><g clip-path="url(#8aee8a968b)"><g clip-path="url(#991428a4fa)"><path fill="#ffffff" d="M 120.558594 118.808594 L 254.441406 118.808594 L 254.441406 252.691406 L 120.558594 252.691406 Z M 120.558594 118.808594 " fill-opacity="1" fill-rule="nonzero"/></g></g><path fill="#1e3d58" d="M 165.691406 199.023438 C 165.691406 199.023438 165.421875 198.609375 164.878906 197.964844 C 165.15625 198.308594 165.429688 198.660156 165.691406 199.023438 " fill-opacity="1" fill-rule="nonzero"/><path fill="#1e3d58" d="M 136.539062 183.621094 L 136.539062 190.3125 C 153.609375 186.695312 162.332031 194.945312 164.878906 197.964844 C 154.933594 185.53125 136.539062 183.621094 136.539062 183.621094 " fill-opacity="1" fill-rule="nonzero"/><path fill="#1e3d58" d="M 138.265625 175.199219 L 138.265625 181.675781 C 157.628906 184.484375 165.691406 196.433594 165.691406 196.433594 C 158.207031 182.46875 138.265625 175.199219 138.265625 175.199219 " fill-opacity="1" fill-rule="nonzero"/><path fill="#1e3d58" d="M 167.632812 197.871094 C 167.632812 197.871094 180.519531 184.484375 231.550781 180.8125 L 238.246094 162.457031 C 238.246094 162.457031 181.886719 177.789062 167.632812 197.871094 " fill-opacity="1" fill-rule="nonzero"/><path fill="#1e3d58" d="M 167.632812 194.199219 C 167.632812 194.199219 185.125 173.6875 226.800781 162.457031 L 233.492188 143.457031 C 233.492188 143.457031 182.75 171.417969 167.632812 194.199219 " fill-opacity="1" fill-rule="nonzero"/><g clip-path="url(#8a3d7c0818)"><path fill="#1e3d58" d="M 182.246094 162.457031 C 192.460938 162.457031 200.742188 154.175781 200.742188 143.960938 C 200.742188 133.742188 192.460938 125.460938 182.246094 125.460938 C 172.03125 125.460938 163.746094 133.742188 163.746094 143.960938 C 163.746094 154.175781 172.03125 162.457031 182.246094 162.457031 " fill-opacity="1" fill-rule="nonzero"/></g><g clip-path="url(#d58091a6f5)"><path fill="#1e3d58" d="M 165.792969 202.078125 L 165.691406 202.652344 L 166.554688 234.953125 L 166.558594 234.964844 C 190.132812 232.1875 211.035156 247.535156 211.035156 247.535156 L 240.40625 183.621094 C 186.050781 185.546875 168.859375 199.171875 165.792969 202.078125 " fill-opacity="1" fill-rule="nonzero"/></g><g clip-path="url(#1c13ad4189)"><path fill="#1e3d58" d="M 164.941406 201.945312 C 158.414062 188.117188 134.597656 193.121094 134.597656 193.121094 L 141.507812 225.078125 C 155.054688 223.574219 163.683594 232.234375 165.675781 234.484375 L 164.828125 202.589844 L 164.941406 201.945312 " fill-opacity="1" fill-rule="nonzero"/></g><g fill="#ffffff" fill-opacity="1"><g transform="translate(106.919262, 263.033837)"><g><path d="M 0.640625 0.59375 L 1.328125 -0.140625 C 1.742188 0.222656 2.097656 0.492188 2.390625 0.671875 C 2.691406 0.847656 2.984375 0.925781 3.265625 0.90625 C 3.546875 0.882812 3.832031 0.765625 4.125 0.546875 C 4.425781 0.335938 4.78125 0.015625 5.1875 -0.421875 L 13.0625 -8.875 C 13.457031 -9.300781 13.757812 -9.660156 13.96875 -9.953125 C 14.175781 -10.253906 14.285156 -10.535156 14.296875 -10.796875 C 14.316406 -11.066406 14.242188 -11.328125 14.078125 -11.578125 C 13.921875 -11.835938 13.6875 -12.132812 13.375 -12.46875 L 14.0625 -13.203125 L 21.015625 -6.734375 C 22.179688 -5.640625 23.082031 -4.453125 23.71875 -3.171875 C 24.363281 -1.890625 24.742188 -0.59375 24.859375 0.71875 C 24.984375 2.039062 24.832031 3.332031 24.40625 4.59375 C 23.988281 5.863281 23.289062 7.023438 22.3125 8.078125 C 21.375 9.078125 20.328125 9.816406 19.171875 10.296875 C 18.023438 10.785156 16.832031 11.015625 15.59375 10.984375 C 14.351562 10.953125 13.101562 10.660156 11.84375 10.109375 C 10.59375 9.566406 9.398438 8.765625 8.265625 7.703125 Z M 17.640625 -7.796875 C 17.429688 -7.984375 17.234375 -7.972656 17.046875 -7.765625 L 8.234375 1.6875 C 7.566406 2.394531 7.296875 3.117188 7.421875 3.859375 C 7.546875 4.609375 8.066406 5.410156 8.984375 6.265625 C 10.578125 7.753906 12.253906 8.421875 14.015625 8.265625 C 15.773438 8.109375 17.515625 7.109375 19.234375 5.265625 C 20.140625 4.285156 20.832031 3.304688 21.3125 2.328125 C 21.800781 1.347656 22.070312 0.390625 22.125 -0.546875 C 22.175781 -1.492188 22.015625 -2.398438 21.640625 -3.265625 C 21.273438 -4.128906 20.703125 -4.925781 19.921875 -5.65625 Z M 17.640625 -7.796875 "/></g></g></g><g fill="#ffffff" fill-opacity="1"><g transform="translate(131.310679, 283.26241)"><g><path d="M 8.609375 4.75 L 0.796875 0.4375 L 1.28125 -0.4375 C 1.78125 -0.1875 2.203125 -0.0195312 2.546875 0.0625 C 2.890625 0.15625 3.203125 0.132812 3.484375 0 C 3.765625 -0.125 4.046875 -0.367188 4.328125 -0.734375 C 4.609375 -1.109375 4.9375 -1.632812 5.3125 -2.3125 L 10.171875 -11.140625 C 10.503906 -11.742188 10.753906 -12.257812 10.921875 -12.6875 C 11.085938 -13.125 11.160156 -13.5 11.140625 -13.8125 C 11.117188 -14.125 11 -14.398438 10.78125 -14.640625 C 10.570312 -14.890625 10.253906 -15.148438 9.828125 -15.421875 L 10.3125 -16.296875 L 17.6875 -12.234375 L 17.203125 -11.359375 C 16.722656 -11.578125 16.320312 -11.710938 16 -11.765625 C 15.675781 -11.828125 15.378906 -11.78125 15.109375 -11.625 C 14.835938 -11.46875 14.566406 -11.203125 14.296875 -10.828125 C 14.023438 -10.460938 13.722656 -9.976562 13.390625 -9.375 L 8.53125 -0.546875 C 8.15625 0.128906 7.878906 0.679688 7.703125 1.109375 C 7.523438 1.546875 7.460938 1.921875 7.515625 2.234375 C 7.566406 2.546875 7.71875 2.820312 7.96875 3.0625 C 8.226562 3.300781 8.601562 3.570312 9.09375 3.875 Z M 8.609375 4.75 "/></g></g></g><g fill="#ffffff" fill-opacity="1"><g transform="translate(148.586252, 292.342124)"><g><path d="M 10.515625 3.078125 C 9.066406 2.691406 7.816406 2.125 6.765625 1.375 C 5.710938 0.632812 4.882812 -0.238281 4.28125 -1.25 C 3.675781 -2.257812 3.304688 -3.390625 3.171875 -4.640625 C 3.035156 -5.898438 3.15625 -7.242188 3.53125 -8.671875 C 3.925781 -10.128906 4.523438 -11.398438 5.328125 -12.484375 C 6.140625 -13.566406 7.085938 -14.425781 8.171875 -15.0625 C 9.253906 -15.707031 10.453125 -16.101562 11.765625 -16.25 C 13.085938 -16.40625 14.472656 -16.289062 15.921875 -15.90625 C 16.921875 -15.632812 17.832031 -15.242188 18.65625 -14.734375 C 19.488281 -14.222656 20.34375 -13.519531 21.21875 -12.625 L 22.09375 -14 L 22.953125 -13.765625 L 21.3125 -7.65625 L 20.109375 -7.984375 C 20.191406 -9.578125 19.859375 -10.921875 19.109375 -12.015625 C 18.367188 -13.117188 17.265625 -13.867188 15.796875 -14.265625 C 13.941406 -14.765625 12.3125 -14.4375 10.90625 -13.28125 C 9.507812 -12.132812 8.460938 -10.28125 7.765625 -7.71875 C 7.097656 -5.21875 7.082031 -3.160156 7.71875 -1.546875 C 8.351562 0.0546875 9.625 1.113281 11.53125 1.625 C 12.894531 1.988281 14.050781 1.925781 15 1.4375 C 15.957031 0.945312 16.601562 0.078125 16.9375 -1.171875 C 17.132812 -1.898438 17.082031 -2.488281 16.78125 -2.9375 C 16.488281 -3.394531 15.898438 -3.789062 15.015625 -4.125 L 15.28125 -5.078125 L 23.109375 -2.96875 L 22.84375 -2.015625 C 22.039062 -2.234375 21.4375 -2.207031 21.03125 -1.9375 C 20.632812 -1.664062 20.316406 -1.082031 20.078125 -0.1875 L 19.21875 3.03125 C 18.875 2.925781 18.570312 2.851562 18.3125 2.8125 C 18.0625 2.769531 17.8125 2.753906 17.5625 2.765625 C 17.320312 2.773438 17.03125 2.820312 16.6875 2.90625 C 16.351562 2.988281 15.9375 3.101562 15.4375 3.25 C 14.007812 3.632812 12.367188 3.578125 10.515625 3.078125 Z M 10.515625 3.078125 "/></g></g></g><g fill="#ffffff" fill-opacity="1"><g transform="translate(178.509429, 298.609372)"><g><path d="M 9.828125 0.21875 L 0.90625 0.015625 L 0.921875 -0.984375 C 1.484375 -0.992188 1.9375 -1.035156 2.28125 -1.109375 C 2.632812 -1.191406 2.90625 -1.351562 3.09375 -1.59375 C 3.28125 -1.84375 3.410156 -2.195312 3.484375 -2.65625 C 3.566406 -3.113281 3.613281 -3.734375 3.625 -4.515625 L 3.84375 -14.578125 C 3.863281 -15.273438 3.847656 -15.851562 3.796875 -16.3125 C 3.742188 -16.769531 3.632812 -17.132812 3.46875 -17.40625 C 3.3125 -17.675781 3.078125 -17.867188 2.765625 -17.984375 C 2.460938 -18.097656 2.054688 -18.175781 1.546875 -18.21875 L 1.578125 -19.21875 L 10 -19.046875 L 9.96875 -18.046875 C 9.445312 -18.023438 9.03125 -17.960938 8.71875 -17.859375 C 8.414062 -17.753906 8.175781 -17.570312 8 -17.3125 C 7.832031 -17.050781 7.710938 -16.691406 7.640625 -16.234375 C 7.578125 -15.773438 7.535156 -15.195312 7.515625 -14.5 L 7.296875 -4.4375 C 7.285156 -3.65625 7.300781 -3.035156 7.34375 -2.578125 C 7.394531 -2.117188 7.515625 -1.757812 7.703125 -1.5 C 7.890625 -1.25 8.148438 -1.070312 8.484375 -0.96875 C 8.816406 -0.875 9.269531 -0.8125 9.84375 -0.78125 Z M 9.828125 0.21875 "/></g></g></g><g fill="#ffffff" fill-opacity="1"><g transform="translate(197.959093, 298.592666)"><g><path d="M 17.015625 -17.734375 L 15.953125 -17.515625 C 15.734375 -18.296875 15.472656 -18.929688 15.171875 -19.421875 C 14.878906 -19.910156 14.523438 -20.28125 14.109375 -20.53125 C 13.703125 -20.78125 13.238281 -20.910156 12.71875 -20.921875 C 12.195312 -20.929688 11.609375 -20.867188 10.953125 -20.734375 C 10.328125 -20.597656 9.828125 -20.472656 9.453125 -20.359375 C 9.078125 -20.253906 8.789062 -20.148438 8.59375 -20.046875 C 8.40625 -19.953125 8.289062 -19.847656 8.25 -19.734375 C 8.207031 -19.628906 8.203125 -19.5 8.234375 -19.34375 L 11 -6.546875 C 11.113281 -6.023438 11.242188 -5.582031 11.390625 -5.21875 C 11.535156 -4.863281 11.75 -4.59375 12.03125 -4.40625 C 12.3125 -4.21875 12.6875 -4.113281 13.15625 -4.09375 C 13.625 -4.070312 14.21875 -4.125 14.9375 -4.25 L 15.15625 -3.265625 L 4.921875 -1.0625 L 4.703125 -2.046875 C 5.429688 -2.222656 6 -2.414062 6.40625 -2.625 C 6.820312 -2.84375 7.117188 -3.09375 7.296875 -3.375 C 7.484375 -3.664062 7.578125 -4.003906 7.578125 -4.390625 C 7.578125 -4.785156 7.519531 -5.242188 7.40625 -5.765625 L 4.640625 -18.5625 C 4.609375 -18.71875 4.550781 -18.835938 4.46875 -18.921875 C 4.394531 -19.003906 4.257812 -19.050781 4.0625 -19.0625 C 3.875 -19.082031 3.609375 -19.070312 3.265625 -19.03125 C 2.921875 -18.988281 2.484375 -18.90625 1.953125 -18.78125 C 1.359375 -18.65625 0.800781 -18.503906 0.28125 -18.328125 C -0.238281 -18.160156 -0.671875 -17.898438 -1.015625 -17.546875 C -1.367188 -17.191406 -1.613281 -16.710938 -1.75 -16.109375 C -1.882812 -15.515625 -1.851562 -14.710938 -1.65625 -13.703125 L -2.609375 -13.5 L -3.53125 -18.921875 L 15.609375 -23.0625 Z M 17.015625 -17.734375 "/></g></g></g><g fill="#ffffff" fill-opacity="1"><g transform="translate(226.760699, 291.012205)"><g><path d="M 8.234375 -11.09375 L 2.015625 -7.71875 C 2.171875 -5.789062 2.410156 -4.53125 2.734375 -3.9375 C 2.972656 -3.5 3.285156 -3.304688 3.671875 -3.359375 C 4.066406 -3.421875 4.59375 -3.628906 5.25 -3.984375 L 5.734375 -3.109375 L -0.28125 0.15625 L -0.765625 -0.71875 C -0.429688 -0.96875 -0.160156 -1.195312 0.046875 -1.40625 C 0.265625 -1.613281 0.4375 -1.835938 0.5625 -2.078125 C 0.695312 -2.316406 0.78125 -2.582031 0.8125 -2.875 C 0.84375 -3.164062 0.835938 -3.503906 0.796875 -3.890625 L -1.28125 -21.484375 L 0.34375 -22.375 L 12.5625 -12.390625 C 13.269531 -11.804688 13.847656 -11.359375 14.296875 -11.046875 C 14.742188 -10.734375 15.148438 -10.53125 15.515625 -10.4375 C 15.878906 -10.351562 16.238281 -10.347656 16.59375 -10.421875 C 16.957031 -10.503906 17.40625 -10.660156 17.9375 -10.890625 L 18.421875 -9.984375 L 10.109375 -5.484375 L 9.625 -6.390625 C 10.3125 -6.804688 10.773438 -7.148438 11.015625 -7.421875 C 11.265625 -7.703125 11.296875 -8.019531 11.109375 -8.375 C 10.992188 -8.570312 10.796875 -8.804688 10.515625 -9.078125 C 10.234375 -9.359375 9.878906 -9.679688 9.453125 -10.046875 Z M 1.796875 -9.3125 L 7.015625 -12.140625 L 0.890625 -17.4375 L 0.796875 -17.40625 Z M 1.796875 -9.3125 "/></g></g></g><g fill="#ffffff" fill-opacity="1"><g transform="translate(251.803693, 275.914519)"><g><path d="M 12.96875 -12.609375 L 0.625 -0.609375 L -0.078125 -1.328125 C 0.304688 -1.722656 0.59375 -2.070312 0.78125 -2.375 C 0.976562 -2.6875 1.070312 -2.972656 1.0625 -3.234375 C 1.050781 -3.503906 0.945312 -3.789062 0.75 -4.09375 C 0.550781 -4.40625 0.242188 -4.769531 -0.171875 -5.1875 L -8.234375 -13.484375 C -8.640625 -13.898438 -8.984375 -14.21875 -9.265625 -14.4375 C -9.554688 -14.65625 -9.832031 -14.773438 -10.09375 -14.796875 C -10.363281 -14.828125 -10.632812 -14.765625 -10.90625 -14.609375 C -11.1875 -14.453125 -11.515625 -14.210938 -11.890625 -13.890625 L -12.59375 -14.609375 L -6.40625 -20.625 L -5.703125 -19.90625 C -6.109375 -19.488281 -6.398438 -19.128906 -6.578125 -18.828125 C -6.765625 -18.535156 -6.847656 -18.25 -6.828125 -17.96875 C -6.816406 -17.6875 -6.695312 -17.382812 -6.46875 -17.0625 C -6.25 -16.75 -5.914062 -16.363281 -5.46875 -15.90625 L 1.828125 -8.40625 C 2.316406 -7.90625 2.765625 -7.546875 3.171875 -7.328125 C 3.578125 -7.109375 3.988281 -7.035156 4.40625 -7.109375 C 4.832031 -7.179688 5.285156 -7.382812 5.765625 -7.71875 C 6.253906 -8.0625 6.8125 -8.535156 7.4375 -9.140625 C 8.132812 -9.816406 8.671875 -10.421875 9.046875 -10.953125 C 9.421875 -11.492188 9.648438 -12.035156 9.734375 -12.578125 C 9.828125 -13.117188 9.78125 -13.675781 9.59375 -14.25 C 9.40625 -14.820312 9.070312 -15.492188 8.59375 -16.265625 L 9.3125 -16.96875 Z M 12.96875 -12.609375 "/></g></g></g><g fill="#1e3d58" fill-opacity="1"><g transform="translate(92.521393, 163.938428)"><g><path d="M -7.578125 -21.03125 C -5.867188 -20.445312 -4.789062 -19.335938 -4.34375 -17.703125 C -3.90625 -16.078125 -4.113281 -14.003906 -4.96875 -11.484375 L -5.640625 -9.46875 L -1.46875 -8.0625 C -0.875 -7.863281 -0.378906 -7.738281 0.015625 -7.6875 C 0.421875 -7.644531 0.765625 -7.710938 1.046875 -7.890625 C 1.335938 -8.078125 1.585938 -8.378906 1.796875 -8.796875 C 2.015625 -9.222656 2.25 -9.804688 2.5 -10.546875 L 3.453125 -10.234375 L 0.28125 -0.828125 L -0.671875 -1.140625 C -0.515625 -1.671875 -0.421875 -2.113281 -0.390625 -2.46875 C -0.359375 -2.832031 -0.40625 -3.128906 -0.53125 -3.359375 C -0.664062 -3.597656 -0.890625 -3.804688 -1.203125 -3.984375 C -1.523438 -4.171875 -1.960938 -4.359375 -2.515625 -4.546875 L -13.46875 -8.234375 C -14.019531 -8.421875 -14.472656 -8.546875 -14.828125 -8.609375 C -15.191406 -8.671875 -15.5 -8.65625 -15.75 -8.5625 C -16 -8.46875 -16.207031 -8.289062 -16.375 -8.03125 C -16.550781 -7.769531 -16.734375 -7.40625 -16.921875 -6.9375 L -17.859375 -7.25 L -15.09375 -15.4375 C -14.289062 -17.832031 -13.253906 -19.503906 -11.984375 -20.453125 C -10.710938 -21.398438 -9.242188 -21.59375 -7.578125 -21.03125 Z M -7.0625 -9.953125 L -6.546875 -11.484375 C -6.023438 -13.015625 -5.953125 -14.238281 -6.328125 -15.15625 C -6.703125 -16.082031 -7.550781 -16.769531 -8.875 -17.21875 C -10.0625 -17.613281 -11.078125 -17.617188 -11.921875 -17.234375 C -12.773438 -16.859375 -13.421875 -16.03125 -13.859375 -14.75 L -14.46875 -12.921875 C -14.5625 -12.640625 -14.472656 -12.457031 -14.203125 -12.375 Z M -7.0625 -9.953125 "/></g></g></g><g fill="#1e3d58" fill-opacity="1"><g transform="translate(98.938495, 145.318835)"><g><path d="M -5.484375 -11.625 C -4.941406 -12.539062 -4.53125 -13.289062 -4.25 -13.875 C -3.96875 -14.46875 -3.828125 -14.96875 -3.828125 -15.375 C -3.828125 -15.789062 -3.957031 -16.164062 -4.21875 -16.5 C -4.488281 -16.84375 -4.898438 -17.222656 -5.453125 -17.640625 L -4.984375 -18.421875 L 1.3125 -14.6875 L 0.84375 -13.90625 C 0.21875 -14.144531 -0.304688 -14.296875 -0.734375 -14.359375 C -1.171875 -14.429688 -1.566406 -14.359375 -1.921875 -14.140625 C -2.285156 -13.929688 -2.65625 -13.570312 -3.03125 -13.0625 C -3.40625 -12.5625 -3.859375 -11.863281 -4.390625 -10.96875 L 0.046875 -8.328125 C 0.503906 -8.054688 0.921875 -7.882812 1.296875 -7.8125 C 1.679688 -7.75 2.054688 -7.800781 2.421875 -7.96875 C 2.785156 -8.144531 3.144531 -8.445312 3.5 -8.875 C 3.863281 -9.300781 4.253906 -9.859375 4.671875 -10.546875 C 5.148438 -11.359375 5.5 -12.082031 5.71875 -12.71875 C 5.945312 -13.351562 6.03125 -13.941406 5.96875 -14.484375 C 5.90625 -15.035156 5.703125 -15.566406 5.359375 -16.078125 C 5.015625 -16.597656 4.519531 -17.144531 3.875 -17.71875 L 4.390625 -18.578125 L 9.109375 -15.328125 L 0.453125 -0.75 L -0.40625 -1.265625 C -0.144531 -1.753906 0.0351562 -2.164062 0.140625 -2.5 C 0.253906 -2.84375 0.269531 -3.140625 0.1875 -3.390625 C 0.113281 -3.648438 -0.0625 -3.90625 -0.34375 -4.15625 C -0.625 -4.40625 -1.015625 -4.679688 -1.515625 -4.984375 L -11.453125 -10.890625 C -11.960938 -11.191406 -12.378906 -11.40625 -12.703125 -11.53125 C -13.035156 -11.65625 -13.332031 -11.703125 -13.59375 -11.671875 C -13.851562 -11.640625 -14.097656 -11.507812 -14.328125 -11.28125 C -14.554688 -11.050781 -14.8125 -10.734375 -15.09375 -10.328125 L -15.953125 -10.84375 L -7.875 -24.421875 L -3.578125 -22.046875 L -4.125 -21.125 C -4.78125 -21.40625 -5.359375 -21.566406 -5.859375 -21.609375 C -6.367188 -21.660156 -6.835938 -21.585938 -7.265625 -21.390625 C -7.703125 -21.203125 -8.117188 -20.875 -8.515625 -20.40625 C -8.921875 -19.945312 -9.351562 -19.332031 -9.8125 -18.5625 L -11.25 -16.140625 C -11.476562 -15.765625 -11.566406 -15.507812 -11.515625 -15.375 C -11.472656 -15.238281 -11.28125 -15.066406 -10.9375 -14.859375 Z M -5.484375 -11.625 "/></g></g></g><g fill="#1e3d58" fill-opacity="1"><g transform="translate(109.663451, 127.51583)"><g><path d="M 1.484375 -22.53125 C 2.492188 -21.582031 3.0625 -20.492188 3.1875 -19.265625 C 3.3125 -18.046875 2.890625 -16.691406 1.921875 -15.203125 L 10.75 -14.84375 C 11.351562 -14.800781 11.929688 -14.894531 12.484375 -15.125 C 13.046875 -15.363281 13.519531 -15.691406 13.90625 -16.109375 L 14.625 -15.421875 L 10.546875 -11.125 L 0.765625 -11.859375 C 0.117188 -11.898438 -0.367188 -11.867188 -0.703125 -11.765625 C -1.046875 -11.660156 -1.3125 -11.507812 -1.5 -11.3125 L 2.0625 -7.9375 C 2.507812 -7.507812 2.898438 -7.191406 3.234375 -6.984375 C 3.578125 -6.785156 3.910156 -6.695312 4.234375 -6.71875 C 4.566406 -6.75 4.925781 -6.910156 5.3125 -7.203125 C 5.695312 -7.492188 6.164062 -7.929688 6.71875 -8.515625 L 7.4375 -7.828125 L 0.609375 -0.640625 L -0.109375 -1.328125 C 0.265625 -1.722656 0.539062 -2.066406 0.71875 -2.359375 C 0.894531 -2.660156 0.972656 -2.953125 0.953125 -3.234375 C 0.929688 -3.515625 0.804688 -3.804688 0.578125 -4.109375 C 0.359375 -4.421875 0.0390625 -4.773438 -0.375 -5.171875 L -8.765625 -13.140625 C -9.191406 -13.535156 -9.550781 -13.835938 -9.84375 -14.046875 C -10.132812 -14.253906 -10.410156 -14.367188 -10.671875 -14.390625 C -10.941406 -14.421875 -11.207031 -14.347656 -11.46875 -14.171875 C -11.738281 -14.003906 -12.0625 -13.75 -12.4375 -13.40625 L -13.171875 -14.09375 L -7.21875 -20.359375 C -5.5625 -22.109375 -3.96875 -23.171875 -2.4375 -23.546875 C -0.914062 -23.921875 0.390625 -23.582031 1.484375 -22.53125 Z M -2.59375 -12.34375 L -1.46875 -13.515625 C -0.394531 -14.660156 0.179688 -15.722656 0.265625 -16.703125 C 0.359375 -17.679688 -0.0976562 -18.648438 -1.109375 -19.609375 C -1.878906 -20.347656 -2.71875 -20.703125 -3.625 -20.671875 C -4.539062 -20.648438 -5.394531 -20.222656 -6.1875 -19.390625 L -7.6875 -17.8125 C -7.894531 -17.59375 -7.898438 -17.382812 -7.703125 -17.1875 Z M -2.59375 -12.34375 "/></g></g></g><g fill="#1e3d58" fill-opacity="1"><g transform="translate(125.09143, 111.72071)"><g><path d="M 6.703125 -21.3125 C 7.710938 -19.820312 7.898438 -18.296875 7.265625 -16.734375 C 6.640625 -15.171875 5.222656 -13.640625 3.015625 -12.140625 L 1.25 -10.953125 L 3.71875 -7.296875 C 4.0625 -6.785156 4.378906 -6.390625 4.671875 -6.109375 C 4.960938 -5.828125 5.28125 -5.671875 5.625 -5.640625 C 5.96875 -5.617188 6.347656 -5.707031 6.765625 -5.90625 C 7.191406 -6.113281 7.726562 -6.4375 8.375 -6.875 L 8.9375 -6.046875 L 0.71875 -0.484375 L 0.15625 -1.3125 C 0.601562 -1.644531 0.945312 -1.941406 1.1875 -2.203125 C 1.4375 -2.472656 1.582031 -2.738281 1.625 -3 C 1.664062 -3.257812 1.613281 -3.554688 1.46875 -3.890625 C 1.320312 -4.234375 1.082031 -4.648438 0.75 -5.140625 L -5.71875 -14.71875 C -6.050781 -15.195312 -6.34375 -15.566406 -6.59375 -15.828125 C -6.84375 -16.097656 -7.09375 -16.269531 -7.34375 -16.34375 C -7.59375 -16.425781 -7.867188 -16.410156 -8.171875 -16.296875 C -8.472656 -16.191406 -8.835938 -16.015625 -9.265625 -15.765625 L -9.828125 -16.59375 L -2.671875 -21.4375 C -0.566406 -22.851562 1.273438 -23.550781 2.859375 -23.53125 C 4.441406 -23.507812 5.722656 -22.769531 6.703125 -21.3125 Z M 0.40625 -12.203125 L 1.75 -13.109375 C 3.09375 -14.015625 3.890625 -14.945312 4.140625 -15.90625 C 4.398438 -16.863281 4.140625 -17.921875 3.359375 -19.078125 C 2.660156 -20.109375 1.859375 -20.726562 0.953125 -20.9375 C 0.046875 -21.15625 -0.96875 -20.882812 -2.09375 -20.125 L -3.6875 -19.046875 C -3.9375 -18.878906 -3.984375 -18.679688 -3.828125 -18.453125 Z M 0.40625 -12.203125 "/></g></g></g><g fill="#1e3d58" fill-opacity="1"><g transform="translate(141.315438, 100.702874)"><g><path d="M 14.84375 -14.0625 C 15.351562 -12.75 15.644531 -11.5625 15.71875 -10.5 C 15.800781 -9.445312 15.65625 -8.5 15.28125 -7.65625 C 14.914062 -6.820312 14.304688 -6.078125 13.453125 -5.421875 C 12.609375 -4.773438 11.519531 -4.191406 10.1875 -3.671875 C 7.6875 -2.703125 5.65625 -2.515625 4.09375 -3.109375 C 2.53125 -3.710938 1.300781 -5.164062 0.40625 -7.46875 L -2.0625 -13.859375 C -2.300781 -14.472656 -2.503906 -14.976562 -2.671875 -15.375 C -2.847656 -15.78125 -3.007812 -16.117188 -3.15625 -16.390625 C -3.300781 -16.660156 -3.4375 -16.875 -3.5625 -17.03125 C -3.6875 -17.195312 -3.804688 -17.328125 -3.921875 -17.421875 C -4.140625 -17.578125 -4.398438 -17.640625 -4.703125 -17.609375 C -5.003906 -17.585938 -5.425781 -17.472656 -5.96875 -17.265625 L -6.328125 -18.203125 L 2.046875 -21.4375 L 2.40625 -20.5 C 1.75 -20.25 1.273438 -20.03125 0.984375 -19.84375 C 0.703125 -19.65625 0.519531 -19.421875 0.4375 -19.140625 C 0.375 -18.972656 0.34375 -18.785156 0.34375 -18.578125 C 0.34375 -18.378906 0.378906 -18.128906 0.453125 -17.828125 C 0.523438 -17.523438 0.632812 -17.160156 0.78125 -16.734375 C 0.925781 -16.316406 1.117188 -15.800781 1.359375 -15.1875 L 3.71875 -9.078125 C 4.40625 -7.304688 5.285156 -6.140625 6.359375 -5.578125 C 7.441406 -5.023438 8.769531 -5.054688 10.34375 -5.671875 C 13.539062 -6.910156 14.453125 -9.316406 13.078125 -12.890625 L 10.984375 -18.265625 C 10.734375 -18.910156 10.503906 -19.460938 10.296875 -19.921875 C 10.097656 -20.378906 9.90625 -20.757812 9.71875 -21.0625 C 9.539062 -21.375 9.367188 -21.617188 9.203125 -21.796875 C 9.035156 -21.984375 8.859375 -22.125 8.671875 -22.21875 C 8.390625 -22.34375 8.054688 -22.390625 7.671875 -22.359375 C 7.285156 -22.328125 6.789062 -22.195312 6.1875 -21.96875 L 5.828125 -22.90625 L 13.375 -25.828125 L 13.734375 -24.890625 C 13.160156 -24.671875 12.734375 -24.457031 12.453125 -24.25 C 12.171875 -24.039062 11.984375 -23.796875 11.890625 -23.515625 C 11.828125 -23.335938 11.800781 -23.117188 11.8125 -22.859375 C 11.820312 -22.597656 11.867188 -22.289062 11.953125 -21.9375 C 12.035156 -21.582031 12.15625 -21.164062 12.3125 -20.6875 C 12.46875 -20.21875 12.671875 -19.660156 12.921875 -19.015625 Z M 14.84375 -14.0625 "/></g></g></g><g fill="#1e3d58" fill-opacity="1"><g transform="translate(163.563906, 92.595314)"><g><path d="M 0.359375 -6.5 L 1.328125 -6.640625 C 1.796875 -5.117188 2.613281 -3.988281 3.78125 -3.25 C 4.945312 -2.507812 6.273438 -2.253906 7.765625 -2.484375 C 8.367188 -2.578125 8.914062 -2.734375 9.40625 -2.953125 C 9.894531 -3.179688 10.296875 -3.457031 10.609375 -3.78125 C 10.929688 -4.101562 11.164062 -4.460938 11.3125 -4.859375 C 11.457031 -5.265625 11.492188 -5.703125 11.421875 -6.171875 C 11.359375 -6.554688 11.242188 -6.882812 11.078125 -7.15625 C 10.910156 -7.425781 10.632812 -7.671875 10.25 -7.890625 C 9.863281 -8.109375 9.34375 -8.3125 8.6875 -8.5 C 8.039062 -8.695312 7.21875 -8.90625 6.21875 -9.125 C 4.175781 -9.5625 2.617188 -10.195312 1.546875 -11.03125 C 0.484375 -11.875 -0.148438 -12.96875 -0.359375 -14.3125 C -0.472656 -15.082031 -0.429688 -15.8125 -0.234375 -16.5 C -0.0351562 -17.1875 0.289062 -17.800781 0.75 -18.34375 C 1.21875 -18.882812 1.804688 -19.34375 2.515625 -19.71875 C 3.222656 -20.09375 4.03125 -20.347656 4.9375 -20.484375 C 5.78125 -20.609375 6.59375 -20.59375 7.375 -20.4375 C 8.164062 -20.289062 8.957031 -20.015625 9.75 -19.609375 L 10 -20.90625 L 10.609375 -21 L 11.6875 -15.6875 L 10.734375 -15.546875 C 10.128906 -16.828125 9.351562 -17.765625 8.40625 -18.359375 C 7.457031 -18.953125 6.429688 -19.160156 5.328125 -18.984375 C 4.304688 -18.828125 3.515625 -18.453125 2.953125 -17.859375 C 2.398438 -17.265625 2.1875 -16.570312 2.3125 -15.78125 C 2.363281 -15.425781 2.460938 -15.125 2.609375 -14.875 C 2.765625 -14.625 3.019531 -14.394531 3.375 -14.1875 C 3.726562 -13.988281 4.191406 -13.800781 4.765625 -13.625 C 5.347656 -13.457031 6.09375 -13.285156 7 -13.109375 C 8.226562 -12.835938 9.28125 -12.535156 10.15625 -12.203125 C 11.039062 -11.878906 11.78125 -11.5 12.375 -11.0625 C 12.976562 -10.625 13.445312 -10.132812 13.78125 -9.59375 C 14.125 -9.050781 14.347656 -8.429688 14.453125 -7.734375 C 14.578125 -6.898438 14.507812 -6.101562 14.25 -5.34375 C 13.988281 -4.59375 13.570312 -3.921875 13 -3.328125 C 12.425781 -2.742188 11.710938 -2.242188 10.859375 -1.828125 C 10.003906 -1.410156 9.03125 -1.117188 7.9375 -0.953125 C 6.945312 -0.804688 6.035156 -0.8125 5.203125 -0.96875 C 4.367188 -1.125 3.492188 -1.4375 2.578125 -1.90625 L 2.296875 -0.34375 L 1.703125 -0.265625 Z M 0.359375 -6.5 "/></g></g></g><g fill="#1e3d58" fill-opacity="1"><g transform="translate(181.701399, 89.798871)"><g><path d="M 21.171875 -12.484375 L 20.09375 -12.546875 C 20.09375 -13.359375 20.015625 -14.039062 19.859375 -14.59375 C 19.703125 -15.15625 19.457031 -15.609375 19.125 -15.953125 C 18.789062 -16.304688 18.378906 -16.5625 17.890625 -16.71875 C 17.398438 -16.875 16.820312 -16.96875 16.15625 -17 C 15.507812 -17.039062 14.988281 -17.0625 14.59375 -17.0625 C 14.195312 -17.0625 13.894531 -17.035156 13.6875 -16.984375 C 13.488281 -16.941406 13.347656 -16.875 13.265625 -16.78125 C 13.191406 -16.6875 13.15625 -16.5625 13.15625 -16.40625 L 12.359375 -3.34375 C 12.328125 -2.8125 12.332031 -2.347656 12.375 -1.953125 C 12.425781 -1.566406 12.554688 -1.242188 12.765625 -0.984375 C 12.984375 -0.734375 13.316406 -0.53125 13.765625 -0.375 C 14.210938 -0.226562 14.800781 -0.125 15.53125 -0.0625 L 15.46875 0.9375 L 5.015625 0.3125 L 5.078125 -0.6875 C 5.828125 -0.664062 6.425781 -0.703125 6.875 -0.796875 C 7.332031 -0.898438 7.6875 -1.0625 7.9375 -1.28125 C 8.195312 -1.507812 8.378906 -1.8125 8.484375 -2.1875 C 8.585938 -2.570312 8.65625 -3.03125 8.6875 -3.5625 L 9.484375 -16.625 C 9.484375 -16.78125 9.457031 -16.910156 9.40625 -17.015625 C 9.363281 -17.117188 9.25 -17.203125 9.0625 -17.265625 C 8.875 -17.335938 8.613281 -17.394531 8.28125 -17.4375 C 7.945312 -17.488281 7.503906 -17.53125 6.953125 -17.5625 C 6.347656 -17.601562 5.769531 -17.609375 5.21875 -17.578125 C 4.675781 -17.554688 4.1875 -17.421875 3.75 -17.171875 C 3.320312 -16.921875 2.957031 -16.523438 2.65625 -15.984375 C 2.363281 -15.441406 2.179688 -14.660156 2.109375 -13.640625 L 1.125 -13.703125 L 1.71875 -19.1875 L 21.265625 -18 Z M 21.171875 -12.484375 "/></g></g></g><g fill="#1e3d58" fill-opacity="1"><g transform="translate(203.946962, 91.362319)"><g><path d="M 13.671875 -2 L 6.890625 -4.015625 C 5.640625 -2.554688 4.914062 -1.5 4.71875 -0.84375 C 4.582031 -0.363281 4.671875 -0.00390625 4.984375 0.234375 C 5.304688 0.472656 5.828125 0.703125 6.546875 0.921875 L 6.265625 1.875 L -0.3125 -0.09375 L -0.03125 -1.046875 C 0.375 -0.984375 0.726562 -0.945312 1.03125 -0.9375 C 1.332031 -0.9375 1.613281 -0.976562 1.875 -1.0625 C 2.132812 -1.144531 2.378906 -1.273438 2.609375 -1.453125 C 2.835938 -1.628906 3.066406 -1.867188 3.296875 -2.171875 L 14.328125 -16.078125 L 16.09375 -15.546875 L 17.65625 0.140625 C 17.726562 1.066406 17.8125 1.796875 17.90625 2.328125 C 18.007812 2.859375 18.15625 3.285156 18.34375 3.609375 C 18.539062 3.929688 18.789062 4.191406 19.09375 4.390625 C 19.40625 4.597656 19.832031 4.804688 20.375 5.015625 L 20.078125 6 L 11.015625 3.296875 L 11.3125 2.3125 C 12.09375 2.507812 12.664062 2.59375 13.03125 2.5625 C 13.40625 2.539062 13.648438 2.335938 13.765625 1.953125 C 13.828125 1.722656 13.859375 1.410156 13.859375 1.015625 C 13.859375 0.628906 13.832031 0.160156 13.78125 -0.390625 Z M 7.875 -5.296875 L 13.5625 -3.59375 L 12.984375 -11.6875 L 12.890625 -11.703125 Z M 7.875 -5.296875 "/></g></g></g><g fill="#1e3d58" fill-opacity="1"><g transform="translate(224.844051, 97.776863)"><g><path d="M 8.234375 0.0625 C 7.921875 0.613281 7.691406 1.066406 7.546875 1.421875 C 7.398438 1.785156 7.347656 2.101562 7.390625 2.375 C 7.429688 2.644531 7.566406 2.894531 7.796875 3.125 C 8.023438 3.351562 8.359375 3.597656 8.796875 3.859375 L 8.296875 4.734375 L 0.765625 0.4375 L 1.265625 -0.4375 C 1.753906 -0.175781 2.171875 0 2.515625 0.09375 C 2.859375 0.195312 3.15625 0.207031 3.40625 0.125 C 3.664062 0.0507812 3.910156 -0.125 4.140625 -0.40625 C 4.378906 -0.695312 4.644531 -1.097656 4.9375 -1.609375 L 10.671875 -11.640625 C 10.953125 -12.128906 11.160156 -12.546875 11.296875 -12.890625 C 11.429688 -13.234375 11.472656 -13.535156 11.421875 -13.796875 C 11.378906 -14.054688 11.242188 -14.296875 11.015625 -14.515625 C 10.796875 -14.742188 10.472656 -14.992188 10.046875 -15.265625 L 10.546875 -16.140625 L 18.046875 -11.859375 L 17.546875 -10.984375 C 17.035156 -11.253906 16.609375 -11.4375 16.265625 -11.53125 C 15.929688 -11.632812 15.628906 -11.640625 15.359375 -11.546875 C 15.097656 -11.453125 14.847656 -11.25 14.609375 -10.9375 C 14.367188 -10.632812 14.09375 -10.207031 13.78125 -9.65625 L 11.03125 -4.828125 L 20.109375 -7.65625 C 20.640625 -7.84375 20.972656 -8.054688 21.109375 -8.296875 C 21.203125 -8.460938 21.164062 -8.644531 21 -8.84375 C 20.84375 -9.039062 20.484375 -9.300781 19.921875 -9.625 L 20.421875 -10.5 L 26.34375 -7.125 L 25.859375 -6.28125 C 25.535156 -6.4375 25.238281 -6.5625 24.96875 -6.65625 C 24.707031 -6.75 24.414062 -6.789062 24.09375 -6.78125 C 23.78125 -6.769531 23.394531 -6.710938 22.9375 -6.609375 C 22.488281 -6.515625 21.921875 -6.375 21.234375 -6.1875 L 15.0625 -4.34375 L 17.015625 7.0625 C 17.109375 7.613281 17.285156 8.082031 17.546875 8.46875 C 17.816406 8.851562 18.234375 9.222656 18.796875 9.578125 L 18.296875 10.453125 L 10.265625 5.875 L 10.765625 5 C 11.367188 5.320312 11.820312 5.515625 12.125 5.578125 C 12.4375 5.640625 12.648438 5.570312 12.765625 5.375 C 12.804688 5.300781 12.832031 5.222656 12.84375 5.140625 C 12.863281 5.054688 12.875 4.957031 12.875 4.84375 C 12.875 4.726562 12.863281 4.570312 12.84375 4.375 C 12.832031 4.175781 12.796875 3.925781 12.734375 3.625 L 11.59375 -3.3125 L 9.875 -2.796875 Z M 8.234375 0.0625 "/></g></g></g><g fill="#1e3d58" fill-opacity="1"><g transform="translate(244.000002, 108.958663)"><g><path d="M 13.15625 4.25 L 7.96875 -0.5625 C 6.1875 0.195312 5.066406 0.828125 4.609375 1.328125 C 4.265625 1.691406 4.1875 2.050781 4.375 2.40625 C 4.5625 2.757812 4.925781 3.191406 5.46875 3.703125 L 4.78125 4.4375 L -0.234375 -0.21875 L 0.453125 -0.953125 C 0.773438 -0.722656 1.070312 -0.535156 1.34375 -0.390625 C 1.613281 -0.253906 1.882812 -0.164062 2.15625 -0.125 C 2.425781 -0.0820312 2.703125 -0.09375 2.984375 -0.15625 C 3.265625 -0.21875 3.578125 -0.328125 3.921875 -0.484375 L 19.953125 -8.09375 L 21.3125 -6.84375 L 15.765625 7.9375 C 15.441406 8.789062 15.203125 9.476562 15.046875 10 C 14.898438 10.519531 14.835938 10.96875 14.859375 11.34375 C 14.890625 11.71875 15 12.066406 15.1875 12.390625 C 15.382812 12.710938 15.675781 13.082031 16.0625 13.5 L 15.359375 14.25 L 8.4375 7.828125 L 9.140625 7.078125 C 9.742188 7.585938 10.21875 7.914062 10.5625 8.0625 C 10.90625 8.207031 11.210938 8.132812 11.484375 7.84375 C 11.640625 7.664062 11.800781 7.398438 11.96875 7.046875 C 12.144531 6.703125 12.332031 6.265625 12.53125 5.734375 Z M 9.40625 -1.265625 L 13.765625 2.765625 L 16.8125 -4.734375 L 16.734375 -4.796875 Z M 9.40625 -1.265625 "/></g></g></g><g fill="#1e3d58" fill-opacity="1"><g transform="translate(259.903267, 123.969359)"><g><path d="M 11.859375 7.109375 L 7.890625 1.25 C 5.984375 1.59375 4.75 1.957031 4.1875 2.34375 C 3.78125 2.625 3.625 2.953125 3.71875 3.328125 C 3.8125 3.710938 4.066406 4.21875 4.484375 4.84375 L 3.65625 5.40625 L -0.1875 -0.265625 L 0.640625 -0.828125 C 0.910156 -0.523438 1.160156 -0.273438 1.390625 -0.078125 C 1.628906 0.109375 1.875 0.253906 2.125 0.359375 C 2.375 0.460938 2.644531 0.515625 2.9375 0.515625 C 3.226562 0.515625 3.5625 0.476562 3.9375 0.40625 L 21.265625 -3.390625 L 22.296875 -1.859375 L 13.578125 11.28125 C 13.054688 12.050781 12.660156 12.671875 12.390625 13.140625 C 12.128906 13.609375 11.972656 14.03125 11.921875 14.40625 C 11.867188 14.78125 11.894531 15.144531 12 15.5 C 12.113281 15.851562 12.316406 16.273438 12.609375 16.765625 L 11.75 17.34375 L 6.453125 9.515625 L 7.3125 8.9375 C 7.78125 9.582031 8.164062 10.015625 8.46875 10.234375 C 8.78125 10.453125 9.101562 10.445312 9.4375 10.21875 C 9.625 10.09375 9.835938 9.875 10.078125 9.5625 C 10.316406 9.257812 10.597656 8.878906 10.921875 8.421875 Z M 9.453125 0.890625 L 12.78125 5.796875 L 17.4375 -0.828125 L 17.390625 -0.90625 Z M 9.453125 0.890625 "/></g></g></g><g fill="#1e3d58" fill-opacity="1"><g transform="translate(272.131165, 141.99315)"><g><path d="M 5.546875 15.8125 L 16.53125 -0.03125 L 16.5 -0.125 L 6.40625 3.578125 C 5.625 3.867188 5.015625 4.125 4.578125 4.34375 C 4.148438 4.5625 3.84375 4.804688 3.65625 5.078125 C 3.476562 5.359375 3.40625 5.671875 3.4375 6.015625 C 3.476562 6.359375 3.585938 6.796875 3.765625 7.328125 L 2.828125 7.671875 L 0.265625 0.703125 L 1.203125 0.359375 C 1.429688 0.921875 1.648438 1.363281 1.859375 1.6875 C 2.078125 2.007812 2.335938 2.226562 2.640625 2.34375 C 2.953125 2.457031 3.332031 2.460938 3.78125 2.359375 C 4.238281 2.265625 4.832031 2.085938 5.5625 1.828125 L 15 -1.65625 C 15.65625 -1.894531 16.1875 -2.125 16.59375 -2.34375 C 17.007812 -2.5625 17.3125 -2.800781 17.5 -3.0625 C 17.6875 -3.332031 17.769531 -3.644531 17.75 -4 C 17.726562 -4.363281 17.632812 -4.816406 17.46875 -5.359375 L 18.40625 -5.703125 L 20.8125 0.84375 L 10.734375 15.28125 L 10.765625 15.390625 L 19.84375 12.046875 C 20.613281 11.765625 21.21875 11.507812 21.65625 11.28125 C 22.09375 11.050781 22.398438 10.800781 22.578125 10.53125 C 22.765625 10.269531 22.835938 9.960938 22.796875 9.609375 C 22.765625 9.265625 22.660156 8.828125 22.484375 8.296875 L 23.421875 7.953125 L 25.984375 14.921875 L 25.046875 15.265625 C 24.816406 14.691406 24.59375 14.242188 24.375 13.921875 C 24.164062 13.597656 23.90625 13.378906 23.59375 13.265625 C 23.289062 13.160156 22.910156 13.15625 22.453125 13.25 C 21.992188 13.351562 21.40625 13.535156 20.6875 13.796875 L 6.703125 18.953125 Z M 5.546875 15.8125 "/></g></g></g></svg>